<?xml version="1.0" encoding="UTF-8" standalone="no"?>
<!-- Created with Inkscape (http://www.inkscape.org/) -->

<svg
   width="87.10321mm"
   height="11.76794mm"
   viewBox="0 0 87.103211 11.767939"
   version="1.1"
   id="svg1"
   inkscape:export-filename="email2.png"
   inkscape:export-xdpi="58.321617"
   inkscape:export-ydpi="58.321617"
   inkscape:version="1.3.2 (091e20e, 2023-11-25)"
   sodipodi:docname="email2.svg"
   xmlns:inkscape="http://www.inkscape.org/namespaces/inkscape"
   xmlns:sodipodi="http://sodipodi.sourceforge.net/DTD/sodipodi-0.dtd"
   xmlns="http://www.w3.org/2000/svg"
   xmlns:svg="http://www.w3.org/2000/svg">
  <sodipodi:namedview
     id="namedview1"
     pagecolor="#ffffff"
     bordercolor="#666666"
     borderopacity="1.0"
     inkscape:showpageshadow="2"
     inkscape:pageopacity="0.0"
     inkscape:pagecheckerboard="0"
     inkscape:deskcolor="#d1d1d1"
     inkscape:document-units="mm"
     inkscape:zoom="0.84096521"
     inkscape:cx="208.68878"
     inkscape:cy="327.0052"
     inkscape:window-width="1808"
     inkscape:window-height="1235"
     inkscape:window-x="950"
     inkscape:window-y="120"
     inkscape:window-maximized="0"
     inkscape:current-layer="layer1" />
  <defs
     id="defs1">
    <inkscape:path-effect
       effect="bend_path"
       id="path-effect1"
       is_visible="true"
       lpeversion="1"
       bendpath="m 44.557665,76.393734 31.39571,2.516949 55.306725,-2.516949"
       prop_scale="1"
       scale_y_rel="false"
       vertical="false"
       hide_knot="false"
       bendpath-nodetypes="ccc" />
  </defs>
  <g
     inkscape:label="Layer 1"
     inkscape:groupmode="layer"
     id="layer1"
     transform="translate(-44.201754,-71.85158)">
    <path
       d="m 44.665417,73.802461 0.857341,0.06901 c 0.0012,0.37852 0.0025,0.757041 0.0039,1.135563 0.193276,-0.395693 0.459228,-0.688815 0.797694,-0.879255 0.342189,-0.193619 0.738799,-0.272249 1.190426,-0.235887 0.472152,0.03801 0.873838,0.19128 1.20574,0.4598 l -0.06989,0.96854 c -0.348708,-0.332009 -0.776199,-0.518398 -1.283483,-0.559184 -0.582619,-0.04684 -1.044144,0.104353 -1.385427,0.453604 -0.340929,0.345727 -0.539395,0.867362 -0.594081,1.564413 l -0.225104,2.869247 -0.960783,-0.07664 c 0.154555,-1.923071 0.309109,-3.846141 0.463663,-5.769212 z m 7.883024,6.585208 c -0.896997,-0.07154 -1.584512,-0.393954 -2.060102,-0.96721 -0.472035,-0.576582 -0.674555,-1.326406 -0.610376,-2.250505 0.03983,-0.573557 0.175681,-1.084272 0.406642,-1.531937 0.234401,-0.447401 0.55772,-0.790994 0.96968,-1.030637 0.415659,-0.242828 0.913857,-0.340828 1.495487,-0.293999 0.766431,0.06171 1.344479,0.35683 1.736032,0.885398 0.395074,0.525259 0.56788,1.224563 0.516217,2.096982 l -0.02746,0.463766 -4.117257,-0.329801 -0.0021,0.03092 c -0.04056,0.601162 0.08562,1.092873 0.379686,1.475566 0.294019,0.382628 0.752646,0.598786 1.37513,0.648492 0.35961,0.02872 0.710721,-2.15e-4 1.052996,-0.08679 0.345734,-0.0863 0.680615,-0.197623 1.004542,-0.333963 l -0.05626,0.942985 c -0.336719,0.107741 -0.67725,0.187582 -1.021443,0.239525 -0.340941,0.05565 -0.688164,0.06939 -1.041423,0.04122 0,-1e-6 10e-7,-3e-6 10e-7,-4e-6 z m 1.520935,-3.446284 c 0.01953,-0.31946 -0.01097,-0.611902 -0.09127,-0.877247 -0.0803,-0.265347 -0.222072,-0.482163 -0.425214,-0.650386 -0.199724,-0.167956 -0.47253,-0.265851 -0.81865,-0.293683 -0.349553,-0.02811 -0.647555,0.02562 -0.894305,0.161171 -0.243082,0.132389 -0.440208,0.322031 -0.59132,0.568886 -0.147678,0.247129 -0.249473,0.527339 -0.305156,0.840575 1.041972,0.08356 2.083943,0.167123 3.125915,0.250684 z m 2.706634,-2.164073 0.852207,0.0686 c 0.01515,0.29107 0.03035,0.582141 0.04561,0.873213 0.382494,-0.642108 0.962749,-0.931776 1.742865,-0.868966 1.173596,0.09449 1.723731,0.919995 1.650406,2.476514 l -0.168503,3.576902 -0.960783,-0.07664 0.17534,-3.576784 c 0.02543,-0.51877 -0.04693,-0.907569 -0.216578,-1.16607 -0.166255,-0.258281 -0.437684,-0.402574 -0.814681,-0.432888 -0.448968,-0.0361 -0.803406,0.09583 -1.064016,0.395773 -0.256945,0.296727 -0.401533,0.735542 -0.432917,1.316101 l -0.176342,3.262115 -0.955589,-0.07623 c 0.107661,-1.92388 0.215321,-3.847761 0.322982,-5.771641 z m 7.705259,6.562013 c -0.561105,-0.04475 -1.018657,-0.241546 -1.371764,-0.590395 -0.349569,-0.352079 -0.510547,-0.828598 -0.484193,-1.430008 0.02183,-0.498208 0.159578,-0.876929 0.412502,-1.135915 0.253109,-0.262459 0.576192,-0.434823 0.969375,-0.517056 0.393207,-0.08224 0.809594,-0.105712 1.24955,-0.07042 l 1.273475,0.102166 0.0054,-0.149496 c 0.01777,-0.491397 -0.09522,-0.843503 -0.338388,-1.056026 -0.239788,-0.212293 -0.583977,-0.336492 -1.032896,-0.37259 -0.349564,-0.02811 -0.694153,-0.0076 -1.03406,0.06165 -0.339901,0.06921 -0.659284,0.178011 -0.958289,0.326393 l 0.04076,-0.94841 c 0.32006,-0.09148 0.642436,-0.16208 0.967239,-0.211783 0.324804,-0.0497 0.654753,-0.06106 0.990065,-0.03406 0.342155,0.02755 0.672172,0.102381 0.990326,0.224502 0.321691,0.118957 0.596825,0.296209 0.825541,0.531731 0.22882,0.232068 0.37662,0.531759 0.443125,0.898939 0.04614,0.258682 0.06052,0.64419 0.04299,1.156221 l -0.04043,1.180537 c -0.01106,0.323037 -0.0061,0.681883 0.01511,1.076418 0.02463,0.39485 0.09752,0.748694 0.218919,1.061648 l -0.960783,-0.07664 c -0.05409,-0.138729 -0.09572,-0.285077 -0.124891,-0.439054 -0.02905,-0.157412 -0.05134,-0.309119 -0.06688,-0.455114 -0.21642,0.330827 -0.50954,0.56591 -0.879379,0.705315 -0.36635,0.13967 -0.750665,0.193482 -1.152413,0.161442 -10e-7,0 -2e-6,0 -3e-6,0 z m 0.26513,-0.775183 c 0.394213,0.03148 0.717803,-0.03921 0.970401,-0.212053 0.256072,-0.172583 0.446603,-0.408943 0.57177,-0.709145 0.125291,-0.303638 0.194233,-0.634142 0.207158,-0.991566 l 0.0076,-0.211356 -1.203082,-0.09641 c -0.268498,-0.02151 -0.533028,-0.01169 -0.793732,0.02948 -0.257113,0.038 -0.473521,0.134444 -0.649313,0.289305 -0.172328,0.155121 -0.265418,0.394232 -0.278958,0.717229 -0.01527,0.364278 0.08545,0.646384 0.302605,0.846483 0.217271,0.196638 0.505873,0.309313 0.865507,0.33803 z m 6.280522,1.297206 c -1.180988,-0.09419 -1.747764,-0.919761 -1.700328,-2.476727 l 0.109009,-3.577929 0.944635,0.07604 -0.102209,3.578046 c -0.02877,1.007078 0.335458,1.54085 1.092679,1.601317 0.442577,0.03534 0.788946,-0.09544 1.038423,-0.392356 0.249608,-0.300411 0.380827,-0.740938 0.3945,-1.321922 l 0.07681,-3.263833 0.949769,0.07645 -0.124651,5.764748 -0.867301,-0.06919 c -0.02442,-0.29123 -0.04879,-0.58246 -0.0731,-0.873688 -0.361569,0.649564 -0.941682,0.942565 -1.738243,0.879039 1e-6,0 2e-6,0 3e-6,0 z m 7.733113,1.753199 c -0.568548,0.02568 -1.102771,-0.04811 -1.60218,-0.221365 -0.486215,-0.170007 -0.908842,-0.443552 -1.267688,-0.820662 -0.0072,-0.0085 -0.01437,-0.01699 -0.02152,-0.02554 -0.34337,-0.412971 -0.602989,-0.90011 -0.779277,-1.46165 -0.176297,-0.561566 -0.257134,-1.192821 -0.243483,-1.894169 0.01258,-0.646238 0.103295,-1.232976 0.271339,-1.759972 0.171477,-0.526731 0.421692,-0.974898 0.750166,-1.344317 0.04482,-0.05066 0.09057,-0.09933 0.13725,-0.14603 0.304169,-0.340445 0.647903,-0.602797 1.031331,-0.787024 0.442612,-0.216074 0.909099,-0.335353 1.399885,-0.357829 0.765298,-0.03505 1.35593,0.166381 1.77271,0.604323 0.416762,0.434439 0.621174,1.038604 0.612084,1.812123 l -0.04667,3.97103 -0.746832,0.03386 0.0072,-0.572439 c -0.134033,0.222559 -0.312451,0.397293 -0.535265,0.52422 -0.222809,0.126926 -0.47778,0.196891 -0.764795,0.2099 -0.560189,0.02539 -1.020588,-0.159886 -1.380424,-0.555816 -0.162967,-0.178125 -0.292316,-0.400698 -0.388081,-0.667746 -0.09231,-0.267208 -0.135633,-0.570966 -0.130102,-0.911322 0.0051,-0.312839 0.05464,-0.605388 0.148553,-0.877616 0.09391,-0.272229 0.233783,-0.51737 0.419539,-0.735398 0.192752,-0.225219 0.406832,-0.393023 0.642315,-0.503398 0.238928,-0.110535 0.483914,-0.171535 0.735077,-0.182998 0.278686,-0.01272 0.53417,0.03575 0.76659,0.145401 0.229017,0.10637 0.404174,0.263317 0.525444,0.470823 l 0.0041,-0.324898 c 0.0069,-0.546624 -0.137352,-0.973049 -0.43214,-1.279091 -0.291337,-0.309667 -0.709872,-0.452001 -1.256001,-0.427019 -0.384714,0.0176 -0.746598,0.116607 -1.085926,0.297022 -0.335826,0.176815 -0.631971,0.435985 -0.888541,0.777476 -0.172796,0.228859 -0.317686,0.481965 -0.43462,0.759299 -0.229471,0.518294 -0.351372,1.144703 -0.36453,1.878779 -0.01307,0.729346 0.08621,1.368365 0.298999,1.917561 0.127271,0.311778 0.294989,0.586354 0.503225,0.823761 0.264547,0.307501 0.587703,0.538495 0.96941,0.693006 0.385105,0.157788 0.815099,0.225957 1.28965,0.204498 0.38795,-0.01754 0.771696,-0.105328 1.150969,-0.263363 0.08014,0.22831 0.160347,0.456621 0.240619,0.684933 -0.118438,0.05346 -0.229834,0.09629 -0.334174,0.128489 -0.104385,0.03564 -0.208714,0.06612 -0.312982,0.09144 -0.107734,0.02549 -0.21194,0.04565 -0.312614,0.06051 -0.100673,0.01485 -0.21688,0.02525 -0.348616,0.0312 z m 0.07806,-2.987539 c 0.369689,-0.01678 0.666931,-0.164262 0.891425,-0.442466 0.224555,-0.281662 0.339422,-0.642482 0.344956,-1.082575 0.0057,-0.453806 -0.100156,-0.806386 -0.31724,-1.057611 -0.217101,-0.251248 -0.511455,-0.368392 -0.883357,-0.351438 -0.361572,0.01648 -0.656152,0.162188 -0.884044,0.43711 -0.227874,0.274902 -0.345391,0.634148 -0.352195,1.077617 -0.007,0.453824 0.09965,0.807947 0.32018,1.062495 0.220516,0.254529 0.514042,0.373487 0.880275,0.356868 z m 4.994002,1.26334 c -1.180156,0.05343 -1.762226,-0.698612 -1.74621,-2.256121 l 0.03681,-3.579175 0.948808,-0.04335 -0.03294,3.579242 c -0.0093,1.007414 0.364705,1.493959 1.121928,1.459633 0.442577,-0.02006 0.786081,-0.193744 1.030122,-0.521052 0.244091,-0.330783 0.367741,-0.786634 0.371426,-1.367768 l 0.0207,-3.264802 0.953964,-0.04359 -0.0303,5.766376 -0.866801,0.03925 c -0.02934,-0.28742 -0.05866,-0.574839 -0.08794,-0.862257 -0.349985,0.693048 -0.923574,1.05758 -1.719574,1.093616 10e-7,0 2e-6,0 3e-6,0 z m 7.278205,-0.329497 c -0.612593,0.02773 -1.128198,-0.07616 -1.546323,-0.311662 -0.414685,-0.239112 -0.728419,-0.582444 -0.941336,-1.030077 -0.209468,-0.447803 -0.312979,-0.969077 -0.311062,-1.563985 0.0019,-0.598293 0.11053,-1.129324 0.325269,-1.59293 0.214754,-0.467057 0.530454,-0.837362 0.946957,-1.110815 0.416532,-0.276906 0.932174,-0.429427 1.547394,-0.457545 0.319651,-0.01461 0.608373,0.01002 0.866264,0.0739 0.257887,0.06044 0.521029,0.158464 0.789536,0.294087 l 0.0019,0.99557 c -0.24484,-0.205506 -0.491114,-0.354189 -0.738962,-0.446049 -0.244408,-0.09202 -0.523082,-0.13088 -0.836144,-0.11659 -0.46442,0.0212 -0.836012,0.137886 -1.115006,0.350051 -0.275542,0.211998 -0.475687,0.489343 -0.600321,0.831978 -0.12119,0.342476 -0.182324,0.720061 -0.183184,1.132693 -8.53e-4,0.409215 0.06045,0.781189 0.18414,1.115986 0.123695,0.331356 0.323635,0.590467 0.599933,0.777383 0.276285,0.186906 0.646223,0.269862 1.109572,0.248859 0.304281,-0.01379 0.587805,-0.07651 0.850445,-0.188148 0.262642,-0.111641 0.507838,-0.280957 0.735485,-0.507959 l 0.0018,0.985254 c -0.494107,0.318158 -1.05645,0.491487 -1.686347,0.520003 z m 5.798686,-0.262517 c -0.553723,0.02507 -1.205201,-0.06585 -1.953484,-0.272735 l -0.0042,-0.980136 c 0.727252,0.331621 1.375106,0.484588 1.942157,0.458885 0.404574,-0.01834 0.72729,-0.117253 0.967982,-0.29675 0.240709,-0.179506 0.359812,-0.410249 0.357553,-0.69228 -0.002,-0.244185 -0.105415,-0.43561 -0.310197,-0.57424 -0.201369,-0.14223 -0.523221,-0.249739 -0.965473,-0.322518 -0.133021,-0.02147 -0.266029,-0.04295 -0.399026,-0.06442 -0.545804,-0.08527 -0.946854,-0.247623 -1.203199,-0.487069 -0.25293,-0.243059 -0.380148,-0.58292 -0.382039,-1.019701 -0.0024,-0.553656 0.18513,-0.988806 0.561877,-1.305251 0.376784,-0.316477 0.913805,-0.490671 1.611499,-0.522558 0.59118,-0.02702 1.164244,0.06032 1.719827,0.262028 l 0.0081,0.928622 c -0.543185,-0.29177 -1.108483,-0.42422 -1.696753,-0.397368 -0.83254,0.038 -1.247271,0.340734 -1.244195,0.908193 0.001,0.185717 0.03797,0.331945 0.110932,0.438705 0.07294,0.103318 0.211287,0.188177 0.41508,0.25458 0.20377,0.06296 0.504111,0.124974 0.901104,0.186031 0.127716,0.01827 0.255443,0.03654 0.38318,0.05481 0.959558,0.145498 1.44409,0.644833 1.451853,1.497758 0.0052,0.57097 -0.19451,1.030704 -0.599931,1.379406 -0.405411,0.34523 -0.963146,0.533893 -1.672669,0.566014 z m 7.003068,-0.317041 c -0.61259,0.02773 -1.13003,-0.07619 -1.55184,-0.311757 -0.41843,-0.239177 -0.73734,-0.582599 -0.95688,-1.030346 -0.21609,-0.447917 -0.32722,-0.969322 -0.33392,-1.56438 -0.007,-0.598442 0.0942,-1.129604 0.30241,-1.593324 0.20813,-0.467172 0.51868,-0.837565 0.93149,-1.111081 0.41281,-0.276972 0.92658,-0.429525 1.5418,-0.457643 0.31965,-0.01461 0.60892,0.01003 0.8679,0.07393 0.25893,0.06045 0.52367,0.158509 0.79432,0.294169 l 0.0163,0.995819 c -0.24797,-0.20556 -0.49656,-0.354283 -0.7459,-0.446169 -0.2459,-0.09204 -0.52533,-0.130918 -0.83839,-0.116628 -0.46442,0.0212 -0.83457,0.137911 -1.11067,0.350125 -0.27265,0.212048 -0.46891,0.489461 -0.58867,0.83218 -0.11631,0.34256 -0.17202,0.720239 -0.16691,1.132974 0.005,0.409317 0.0718,0.781385 0.20044,1.116267 0.12857,0.33144 0.33239,0.590619 0.61158,0.777584 0.27917,0.186956 0.65055,0.269937 1.11391,0.248934 0.30428,-0.01379 0.58708,-0.07652 0.84828,-0.188186 0.26119,-0.111666 0.5041,-0.281022 0.72861,-0.508077 l 0.0161,0.9855 c -0.48982,0.318232 -1.05003,0.491597 -1.67993,0.520114 z m 5.92306,-0.278472 c -0.23534,0.01065 -0.43603,-0.06118 -0.60195,-0.215495 -0.16593,-0.154323 -0.25142,-0.360468 -0.25663,-0.618476 -0.005,-0.257994 0.0718,-0.471533 0.23087,-0.640577 0.15908,-0.16905 0.35599,-0.258907 0.59086,-0.269569 0.23487,-0.01066 0.4352,0.06116 0.60111,0.215479 0.1659,0.154311 0.25178,0.360488 0.25747,0.618491 0.006,0.258017 -0.0709,0.471534 -0.23002,0.640591 -0.15909,0.169051 -0.35637,0.258902 -0.59171,0.269556 z m 6.73853,-0.29474 c -0.89645,0.04058 -1.60815,-0.194179 -2.13395,-0.704236 -0.52252,-0.513745 -0.79475,-1.23312 -0.81834,-2.158653 -0.0146,-0.574513 0.0721,-1.098598 0.25981,-1.572129 0.19113,-0.473693 0.48085,-0.855509 0.86898,-1.145346 0.3915,-0.293451 0.87915,-0.453537 1.46344,-0.480241 0.76984,-0.03518 1.37347,0.185272 1.81174,0.661411 0.44153,0.472462 0.67662,1.145859 0.70396,2.019715 l 0.0145,0.464491 -4.1243,0.187537 8.2e-4,0.03097 c 0.016,0.602105 0.18754,1.074756 0.51521,1.418174 0.32763,0.343379 0.80289,0.500974 1.42532,0.47276 0.35961,-0.0163 0.70547,-0.08882 1.0374,-0.217566 0.33539,-0.1289 0.65783,-0.281338 0.96726,-0.457317 l 0.0293,0.944463 c -0.32445,0.149073 -0.6551,0.270853 -0.99185,0.365343 -0.33319,0.09777 -0.67635,0.154649 -1.02936,0.17063 z m 1.19557,-3.614864 c -0.01,-0.31997 -0.0667,-0.606798 -0.17083,-0.860442 -0.10418,-0.253645 -0.2652,-0.451304 -0.48302,-0.59295 -0.21437,-0.141807 -0.49522,-0.204778 -0.84268,-0.188918 -0.3509,0.01602 -0.64286,0.106856 -0.87603,0.27251 -0.22982,0.162053 -0.40842,0.375168 -0.53576,0.639316 -0.1239,0.26399 -0.19893,0.555043 -0.22496,0.873124 1.04442,-0.04755 2.08885,-0.09509 3.13328,-0.14264 z m 4.56159,3.354227 c -0.42224,0.01912 -0.7801,-0.05429 -1.07335,-0.220207 -0.29327,-0.165922 -0.5313,-0.394627 -0.71411,-0.686144 -0.17935,-0.291675 -0.31288,-0.616411 -0.40072,-0.974248 -0.0879,-0.361273 -0.13788,-0.725987 -0.14993,-1.094149 -0.0302,-0.922032 0.14764,-1.660837 0.53216,-2.215884 0.38802,-0.555296 0.92518,-0.848662 1.61261,-0.88008 0.33684,-0.0154 0.64186,0.04304 0.91527,0.175309 0.27328,0.128824 0.49458,0.339319 0.66393,0.63146 l -0.11067,-2.988525 0.94636,-0.0434 0.3061,8.031488 -0.86161,0.03902 c -0.0401,-0.241182 -0.0803,-0.482364 -0.12036,-0.723546 -0.32062,0.600491 -0.83619,0.916787 -1.54566,0.948906 -1e-5,10e-7 -1e-5,10e-7 -2e-5,10e-7 z m 0.14277,-0.812932 c 0.30083,-0.01364 0.54035,-0.09515 0.71845,-0.244534 0.18156,-0.149548 0.31657,-0.33834 0.40509,-0.566399 0.0918,-0.231656 0.15022,-0.477299 0.17519,-0.736946 0.0249,-0.263084 0.0329,-0.513348 0.0241,-0.750776 -0.009,-0.233992 -0.035,-0.479235 -0.0791,-0.735743 -0.044,-0.256503 -0.12009,-0.49432 -0.22815,-0.71343 -0.10475,-0.222707 -0.25261,-0.40037 -0.44354,-0.532967 -0.1875,-0.132758 -0.43084,-0.192304 -0.73014,-0.178642 -0.30273,0.01382 -0.54451,0.09551 -0.72545,0.245061 -0.17749,0.149395 -0.31059,0.339847 -0.39924,0.571334 -0.0853,0.227891 -0.14089,0.47166 -0.16659,0.731288 -0.0257,0.259635 -0.0346,0.506434 -0.0267,0.740414 0.008,0.233973 0.0336,0.480934 0.077,0.740865 0.0433,0.256496 0.11541,0.496169 0.21642,0.719034 0.10437,0.219269 0.25064,0.396999 0.43887,0.533211 0.19155,0.132612 0.43953,0.192023 0.74381,0.17823 z m 6.16466,0.527384 c -1.18016,0.05343 -1.80171,-0.699294 -1.86465,-2.258166 l -0.14464,-3.582307 0.94881,-0.04335 0.14851,3.582374 c 0.0418,1.008296 0.44131,1.495281 1.19853,1.460956 0.44258,-0.02006 0.77806,-0.193882 1.00607,-0.521468 0.22788,-0.331063 0.3287,-0.787308 0.30293,-1.36895 l -0.1448,-3.267659 0.95397,-0.04359 0.26199,5.771422 -0.86679,0.03925 c -0.044,-0.287673 -0.0879,-0.575345 -0.13184,-0.863017 -0.31565,0.693641 -0.87207,1.05847 -1.66807,1.094506 -1e-5,0 -2e-5,10e-7 -2e-5,10e-7 z"
       id="text1"
       style="font-size:10.5833px;line-height:1.25;font-family:Hack;-inkscape-font-specification:Hack;stroke-width:0.264583"
       aria-label="renau@ucsc.edu"
       inkscape:path-effect="#path-effect1"
       inkscape:original-d="m 47.389233,74.746026 h 0.862993 l 0.09302,1.13171 q 0.242878,-0.614948 0.728635,-0.940508 0.490925,-0.330728 1.173051,-0.330728 0.713133,0 1.240231,0.361734 v 0.971513 q -0.558104,-0.454751 -1.322913,-0.454751 -0.878496,0 -1.34875,0.563272 -0.470254,0.558103 -0.470254,1.607132 v 2.878368 h -0.956011 z m 8.314711,5.937603 q -1.338415,0 -2.103224,-0.800982 -0.759641,-0.80615 -0.759641,-2.196242 0,-0.862993 0.299722,-1.560623 0.30489,-0.69763 0.899167,-1.105872 0.599445,-0.41341 1.477941,-0.41341 1.157549,0 1.793167,0.744138 0.640786,0.738971 0.640786,2.051548 v 0.465086 h -4.118599 v 0.03101 q 0,0.904335 0.475422,1.441768 0.475421,0.537433 1.405594,0.537433 0.537433,0 1.038693,-0.170532 0.506428,-0.170531 0.976682,-0.41341 v 0.945676 q -0.490925,0.201537 -0.997352,0.320393 -0.50126,0.124023 -1.028358,0.124023 z m 1.297074,-3.560495 q 0,-0.480589 -0.144693,-0.868161 -0.144694,-0.387572 -0.465087,-0.614948 -0.315225,-0.227375 -0.837155,-0.227375 -0.527098,0 -0.883664,0.232543 -0.351399,0.227375 -0.552936,0.614947 -0.19637,0.387572 -0.248046,0.862994 z m 2.578646,-2.377108 h 0.857826 l 0.09302,0.868161 q 0.521931,-1.007687 1.700149,-1.007687 1.772496,0 1.772496,2.340935 v 3.586333 h -0.956011 v -3.586333 q 0,-0.780312 -0.273884,-1.147213 -0.268716,-0.366902 -0.837155,-0.366902 -0.676959,0 -1.043861,0.480589 -0.361734,0.475422 -0.361734,1.348751 v 3.271108 h -0.950843 z m 7.994319,5.937603 q -0.837156,0 -1.384924,-0.480589 -0.542601,-0.485757 -0.542601,-1.390092 0,-0.749306 0.361734,-1.167884 0.361734,-0.423745 0.945676,-0.594277 0.583941,-0.170531 1.245398,-0.170531 h 1.276403 v -0.149862 q 0,-0.73897 -0.377236,-1.028357 -0.372069,-0.289387 -1.049029,-0.289387 -0.527098,0 -1.033525,0.144693 -0.506427,0.144694 -0.945676,0.403075 v -0.950843 q 0.475422,-0.1757 0.961179,-0.289387 0.485757,-0.113688 0.992184,-0.113688 0.516763,0 1.00252,0.144693 0.490924,0.139526 0.847491,0.465087 0.356566,0.320393 0.475421,0.862993 0.08268,0.382405 0.08268,1.152381 v 1.183387 q 0,0.485757 0.05168,1.074866 0.05684,0.58911 0.253213,1.043861 H 69.78056 q -0.08785,-0.201538 -0.139526,-0.428913 -0.05168,-0.232544 -0.08268,-0.449584 -0.30489,0.52193 -0.84749,0.775144 -0.537434,0.253214 -1.136878,0.253214 z m 0.232543,-0.795815 q 0.589109,0 0.956011,-0.289387 0.372069,-0.289387 0.542601,-0.754473 0.170531,-0.470254 0.170531,-1.007687 v -0.211873 h -1.204057 q -0.403075,0 -0.790647,0.09302 -0.382404,0.08785 -0.635618,0.341063 -0.248046,0.253214 -0.248046,0.738971 0,0.547769 0.335896,0.821653 0.335896,0.268716 0.873329,0.268716 z m 6.278666,0.795815 q -1.762161,0 -1.762161,-2.340935 v -3.586333 h 0.950843 v 3.586333 q 0,1.514115 1.131711,1.514115 0.661456,0 1.02319,-0.475422 0.361734,-0.480589 0.361734,-1.353918 v -3.271108 h 0.956011 v 5.777407 h -0.862994 l -0.09302,-0.868162 q -0.516763,1.018023 -1.705317,1.018023 z m 7.715266,1.498612 q -0.847491,0 -1.596797,-0.294555 -0.744138,-0.294555 -1.297074,-0.904335 -0.52193,-0.578774 -0.800982,-1.400427 -0.279052,-0.821652 -0.279052,-1.875848 0,-0.971514 0.237711,-1.782831 0.242878,-0.811318 0.728635,-1.405595 0.496092,-0.60978 1.157549,-0.899167 0.661456,-0.294555 1.400426,-0.294555 1.152381,0 1.787999,0.687295 0.635618,0.682126 0.635618,1.844842 v 3.979073 h -0.744138 v -0.573606 q -0.19637,0.32556 -0.527098,0.501259 -0.330728,0.1757 -0.759641,0.1757 -0.837156,0 -1.384924,-0.620116 -0.248046,-0.279051 -0.397907,-0.687294 -0.144694,-0.408242 -0.144694,-0.919838 0,-0.470254 0.134359,-0.873328 0.134358,-0.403075 0.408242,-0.718301 0.284219,-0.32556 0.635618,-0.475421 0.356566,-0.149861 0.733803,-0.149861 0.418578,0 0.769977,0.180867 0.34623,0.175699 0.532265,0.496092 V 75.84673 q 0,-0.821652 -0.449583,-1.302242 -0.444416,-0.485757 -1.266069,-0.485757 -0.578774,0 -1.085202,0.248046 -0.501259,0.242879 -0.878496,0.738971 -0.754474,0.987017 -0.754474,2.650993 0,1.751825 0.847491,2.744009 0.403075,0.48059 0.976682,0.738971 0.578774,0.263549 1.286739,0.263549 0.578774,0 1.142045,-0.211873 l 0.248046,0.69763 q -0.175699,0.07235 -0.330728,0.113688 -0.155029,0.04651 -0.310058,0.07751 -0.160196,0.03101 -0.310057,0.04651 -0.149861,0.0155 -0.346231,0.0155 z m 0.03617,-2.992056 q 0.552936,0 0.883664,-0.403075 0.330729,-0.408243 0.330729,-1.069699 0,-0.682127 -0.330729,-1.074866 -0.330728,-0.39274 -0.888831,-0.39274 -0.542601,0 -0.878497,0.397907 -0.335896,0.397908 -0.335896,1.064531 0,0.682127 0.335896,1.080034 0.335896,0.397908 0.883664,0.397908 z m 4.991929,1.493444 q -1.762161,0 -1.762161,-2.340935 v -3.586333 h 0.950844 v 3.586333 q 0,1.514115 1.13171,1.514115 0.661456,0 1.02319,-0.475422 0.361734,-0.480589 0.361734,-1.353918 v -3.271108 h 0.956011 v 5.777407 h -0.862994 l -0.09302,-0.868162 q -0.516763,1.018023 -1.705317,1.018023 z m 7.24501,0 q -0.91467,0 -1.539953,-0.382405 -0.620115,-0.387572 -0.940508,-1.074866 -0.315225,-0.687294 -0.315225,-1.581294 0,-0.899167 0.320393,-1.581293 0.320393,-0.687295 0.945676,-1.069699 0.625282,-0.387572 1.550288,-0.387572 0.480589,0 0.868161,0.113688 0.387572,0.10852 0.790647,0.330728 v 0.997352 q -0.366902,-0.325561 -0.738971,-0.48059 -0.366901,-0.155028 -0.837155,-0.155028 -0.69763,0 -1.116208,0.299722 -0.41341,0.299722 -0.599444,0.80615 -0.180867,0.506427 -0.180867,1.126542 0,0.614948 0.186034,1.126543 0.186035,0.506427 0.599445,0.80615 0.41341,0.299722 1.105872,0.299722 0.454751,0 0.847491,-0.149861 0.392739,-0.149861 0.733803,-0.475422 v 0.987017 q -0.738971,0.444416 -1.679479,0.444416 z m 5.77224,0 q -0.82682,0 -1.943027,-0.361734 v -0.981849 q 1.085201,0.547768 1.932692,0.547768 0.604618,0 0.966348,-0.253213 0.36174,-0.253214 0.36174,-0.676959 0,-0.366902 -0.30489,-0.58911 -0.29973,-0.227375 -0.961186,-0.366901 l -0.397908,-0.08268 Q 98.683091,77.753586 98.300687,77.37635 97.92345,76.993945 97.92345,76.337657 q 0,-0.831988 0.568439,-1.281572 0.568439,-0.449583 1.617471,-0.449583 0.88883,0 1.72082,0.341063 v 0.930173 q -0.81132,-0.475422 -1.69498,-0.475422 -1.250571,0 -1.250571,0.852659 0,0.279052 0.10852,0.444416 0.10852,0.160196 0.41341,0.273884 0.30489,0.10852 0.899171,0.227375 l 0.3824,0.07235 q 1.4366,0.28422 1.4366,1.565791 0,0.857826 -0.60978,1.353918 -0.60978,0.490925 -1.669143,0.490925 z m 6.971133,0 q -0.91467,0 -1.53995,-0.382405 -0.62012,-0.387572 -0.94051,-1.074866 -0.31523,-0.687294 -0.31523,-1.581294 0,-0.899167 0.3204,-1.581293 0.32039,-0.687295 0.94567,-1.069699 0.62529,-0.387572 1.55029,-0.387572 0.48059,0 0.86816,0.113688 0.38757,0.10852 0.79065,0.330728 v 0.997352 q -0.3669,-0.325561 -0.73897,-0.48059 -0.3669,-0.155028 -0.83716,-0.155028 -0.69763,0 -1.1162,0.299722 -0.41341,0.299722 -0.59945,0.80615 -0.18087,0.506427 -0.18087,1.126542 0,0.614948 0.18604,1.126543 0.18603,0.506427 0.59944,0.80615 0.41341,0.299722 1.10588,0.299722 0.45475,0 0.84749,-0.149861 0.39274,-0.149861 0.7338,-0.475422 v 0.987017 q -0.73897,0.444416 -1.67948,0.444416 z m 5.89626,-0.01033 q -0.3514,0 -0.59428,-0.242879 -0.24288,-0.242878 -0.24288,-0.63045 0,-0.387572 0.24288,-0.630451 0.24288,-0.242878 0.59428,-0.242878 0.3514,0 0.59428,0.242878 0.24288,0.242879 0.24288,0.630451 0,0.387572 -0.24288,0.63045 -0.24288,0.242879 -0.59428,0.242879 z m 6.70758,0.01033 q -1.33842,0 -2.10323,-0.800982 -0.75964,-0.80615 -0.75964,-2.196242 0,-0.862993 0.29972,-1.560623 0.30489,-0.69763 0.89917,-1.105872 0.59945,-0.41341 1.47794,-0.41341 1.15755,0 1.79317,0.744138 0.64078,0.738971 0.64078,2.051548 v 0.465086 h -4.11859 v 0.03101 q 0,0.904335 0.47542,1.441768 0.47542,0.537433 1.40559,0.537433 0.53744,0 1.03869,-0.170532 0.50643,-0.170531 0.97669,-0.41341 v 0.945676 q -0.49093,0.201537 -0.99736,0.320393 -0.50126,0.124023 -1.02835,0.124023 z m 1.29707,-3.560495 q 0,-0.480589 -0.14469,-0.868161 -0.1447,-0.387572 -0.46509,-0.614948 -0.31522,-0.227375 -0.83715,-0.227375 -0.5271,0 -0.88367,0.232543 -0.3514,0.227375 -0.55293,0.614947 -0.19637,0.387572 -0.24805,0.862994 z m 4.43383,3.560495 q -0.63045,0 -1.05936,-0.268717 -0.42892,-0.268716 -0.6873,-0.7183 -0.25321,-0.449583 -0.3669,-0.992184 -0.11369,-0.547769 -0.11369,-1.100705 0,-1.384924 0.60461,-2.191073 0.60978,-0.80615 1.64331,-0.80615 0.50643,0 0.9095,0.21704 0.40308,0.211873 0.64079,0.661456 V 72.49294 h 0.95084 v 8.040828 h -0.85782 l -0.093,-0.728636 q -0.5116,0.878497 -1.57096,0.878497 z m 0.17053,-0.80615 q 0.44958,0 0.72347,-0.211873 0.27905,-0.211872 0.42374,-0.547768 0.14987,-0.341063 0.20154,-0.728635 0.0517,-0.39274 0.0517,-0.749306 0,-0.351399 -0.0517,-0.738971 -0.0517,-0.387572 -0.20154,-0.723468 -0.14469,-0.341063 -0.42374,-0.552936 -0.27389,-0.211872 -0.72347,-0.211872 -0.45475,0 -0.7338,0.211872 -0.27389,0.211873 -0.41858,0.552936 -0.13953,0.335896 -0.1912,0.723468 -0.0517,0.387572 -0.0517,0.738971 0,0.351398 0.0517,0.744138 0.0517,0.387572 0.1912,0.728635 0.14469,0.335896 0.41858,0.552936 0.27905,0.211873 0.7338,0.211873 z m 6.10813,0.80615 q -1.76216,0 -1.76216,-2.340935 v -3.586333 h 0.95085 v 3.586333 q 0,1.514115 1.13171,1.514115 0.66145,0 1.02319,-0.475422 0.36173,-0.480589 0.36173,-1.353918 v -3.271108 h 0.95601 v 5.777407 h -0.86299 l -0.093,-0.868162 q -0.51676,1.018023 -1.70532,1.018023 z" />
  </g>
</svg>
