<?xml version="1.0" encoding="UTF-8" standalone="no"?>
<!-- Created with Inkscape (http://www.inkscape.org/) -->

<svg
   xmlns:dc="http://purl.org/dc/elements/1.1/"
   xmlns:cc="http://creativecommons.org/ns#"
   xmlns:rdf="http://www.w3.org/1999/02/22-rdf-syntax-ns#"
   xmlns:svg="http://www.w3.org/2000/svg"
   xmlns="http://www.w3.org/2000/svg"
   xmlns:sodipodi="http://sodipodi.sourceforge.net/DTD/sodipodi-0.dtd"
   xmlns:inkscape="http://www.inkscape.org/namespaces/inkscape"
   width="473.34036"
   height="180.69225"
   id="svg2"
   version="1.1"
   inkscape:version="0.92.1 r"
   sodipodi:docname="masc.svg"
   inkscape:export-filename="/media/Dropbox/Documents/www/masc/assets/logos/masclarge.png"
   inkscape:export-xdpi="180.10733"
   inkscape:export-ydpi="180.10733">
  <defs
     id="defs4" />
  <sodipodi:namedview
     id="base"
     pagecolor="#ffffff"
     bordercolor="#666666"
     borderopacity="1.0"
     inkscape:pageopacity="0.0"
     inkscape:pageshadow="2"
     inkscape:zoom="1.1816406"
     inkscape:cx="181.57196"
     inkscape:cy="143.58275"
     inkscape:document-units="px"
     inkscape:current-layer="layer1"
     showgrid="false"
     showguides="true"
     inkscape:guide-bbox="true"
     inkscape:window-width="1195"
     inkscape:window-height="1021"
     inkscape:window-x="1196"
     inkscape:window-y="19"
     inkscape:window-maximized="0"
     fit-margin-top="0"
     fit-margin-left="0"
     fit-margin-right="0"
     fit-margin-bottom="0" />
  <metadata
     id="metadata7">
    <rdf:RDF>
      <cc:Work
         rdf:about="">
        <dc:format>image/svg+xml</dc:format>
        <dc:type
           rdf:resource="http://purl.org/dc/dcmitype/StillImage" />
        <dc:title />
      </cc:Work>
    </rdf:RDF>
  </metadata>
  <g
     inkscape:label="Layer 1"
     inkscape:groupmode="layer"
     id="layer1"
     transform="translate(-64.132446,-124.82662)">
    <rect
       style="fill:#ffffff;fill-opacity:1;stroke:none;stroke-width:1.06666672"
       id="rect3850"
       width="470.95566"
       height="180.69225"
       x="64.132446"
       y="124.82663"
       inkscape:export-xdpi="90"
       inkscape:export-ydpi="90" />
    <path
       style="fill:#ffeeaa;stroke:none;stroke-width:1.06666672"
       d="m 178.02823,140.86988 14.06158,129.64586 27.09739,20.15839 H 536.51197 L 537.4728,139.99474 H 182.10656 Z"
       id="path3818"
       inkscape:connector-curvature="0"
       sodipodi:nodetypes="ccccccc" />
    <path
       style="fill:#ff0000;stroke:none;stroke-width:1.06666672"
       d="m 102.33641,204.24306 c 1.43747,-19.66013 10.67233,-49.62731 22.03698,-65.07344 9.13009,-12.40905 14.10203,-6.86093 18.62158,3.74859 3.34753,7.85822 2.56965,16.20386 2.60922,16.12644 4.22468,-8.26444 22.51919,-32.29694 33.26198,-33.3477 6.92235,-0.67709 11.37704,19.79582 12.43352,25.09215 6.76805,33.92943 -3.58561,83.70831 11.68481,118.8622 14.66624,33.763 43.86217,17.36537 71.3113,0.8433 7.12699,-4.28984 14.00015,-10.05567 20.87381,-16.14122 3.91685,-3.46777 8.21071,-5.91413 12.72849,-8.38872 0.64192,-0.3516 2.4193,-1.54247 1.97394,-0.96166 -9.91517,12.93088 -24.52448,22.68226 -36.88718,32.96751 -8.4373,7.01948 -18.56571,12.36601 -27.59476,18.48914 -6.20013,4.20467 -18.2682,7.60542 -25.72924,8.16678 -51.11059,3.84554 -38.73207,-102.60697 -45.17366,-133.74586 -3.33253,-16.10964 -2.84431,-24.74071 -8.64448,-26.63082 -2.79585,-0.91109 -6.27857,13.17435 -8.34953,21.08273 -5.99117,22.87861 -2.53264,34.92593 -21.59986,45.70143 -0.62046,0.35064 -5.16826,2.48931 -5.7403,2.0417 -1.92507,-1.50636 -1.07082,-48.74455 -3.49006,-49.53332 -0.0133,-0.004 -4.48468,18.42756 -5.06366,20.63888 -2.95303,11.2785 -15.63014,15.42198 -19.37886,19.8795"
       id="path3046"
       inkscape:connector-curvature="0"
       sodipodi:nodetypes="csscssssssssssssssscsc" />
    <path
       style="fill:#ff0000;stroke:none;stroke-width:1.06666672"
       d="m 196.26858,224.9855 c 6.08196,-11.782 8.70384,-43.67558 25.27546,-48.52726 12.34467,-3.61415 23.96105,65.48214 27.18134,75.63151 0.4301,1.35554 6.05565,17.31153 5.08232,17.94622 -5.67174,3.6984 -8.91633,8.25411 -13.74949,12.53127 -0.74417,0.65855 -1.97394,3.22775 -1.97394,2.23403 0,-16.02114 -5.27921,-33.47482 -9.36601,-48.88234 -1.97406,-7.44238 -3.98352,-32.82437 -17.06659,-24.29322 -0.4086,0.26644 -0.46408,4.50611 -1.90638,5.7153 -3.93892,3.30233 -11.16467,5.70001 -13.24982,7.78486"
       id="path3048"
       inkscape:connector-curvature="0"
       sodipodi:nodetypes="cssssssssc" />
    <path
       style="fill:#ffeeaa;stroke:none;stroke-width:1.06666672"
       d="m 214.16963,207.60908 c -0.147,-3.56025 -0.0802,-6.04037 2.25452,-6.23896 3.15917,-0.26871 4.92597,7.07 -1.86428,6.28608"
       id="path3050"
       inkscape:connector-curvature="0"
       sodipodi:nodetypes="csc" />
    <path
       style="fill:#ff0000;stroke:none;stroke-width:1.06666672"
       d="m 269.91683,201.28407 c 1.4812,-1.47898 15.79992,-22.41824 12.61505,-24.35239 -2.30389,-1.39915 -15.61944,9.54489 -19.33096,13.12307 -7.2867,7.02494 -11.43875,24.9626 -8.3445,34.11977 2.56728,7.59768 8.84768,13.72765 7.57307,22.87017 -0.48001,3.443 -5.28,7.9617 -6.89744,11.12576 -0.81817,1.60055 10.65368,-4.25432 12.04783,-5.16341 6.24975,-4.07532 14.04392,-11.03631 13.00075,-19.42571 -1.27833,-10.28068 -12.84594,-26.11974 -10.39102,-32.32858"
       id="path3052"
       inkscape:connector-curvature="0"
       sodipodi:nodetypes="csssssssc" />
    <path
       style="fill:#ff0000;stroke:none;stroke-width:1.06666672"
       d="m 311.59639,171.94579 c -8.25411,1.27492 -17.37365,8.53534 -21.41834,16.00809 -8.68003,16.03678 -18.32736,40.78344 11.59405,34.27977 2.94889,-0.64097 8.73965,-7.75375 10.66379,-9.74983 0.34559,-0.35852 4.43029,-4.87502 3.85712,-5.05986 -5.13845,-1.65717 -12.45093,3.32074 -17.62729,-2.07986 -8.10191,-8.4529 12.72816,-32.33062 13.42883,-32.6276"
       id="path3056"
       inkscape:connector-curvature="0"
       sodipodi:nodetypes="csssssc" />
    <g
       id="g3077"
       transform="translate(14.370438,-302.84538)">
      <path
         sodipodi:nodetypes="cssssssssssssssssssscsssscc"
         inkscape:connector-curvature="0"
         id="path3065"
         d="m 51.260891,599.29133 c 28.179496,-9.92705 11.126647,-26.26537 18.037698,-46.54475 2.42659,-7.12044 12.572997,11.93121 13.749491,14.23269 5.217301,10.20623 29.89758,27.30861 41.31654,22.23674 14.65748,-6.5103 18.83121,-17.9169 22.37128,-33.614 1.73856,-7.70901 0.21143,-14.53007 -1.45209,-21.85207 -0.25456,-1.12045 -0.66139,-4.39776 -0.99831,-3.29926 -0.21616,0.70475 1.27991,-1.53217 1.76973,-1.96773 5.98669,-5.32332 11.8482,-6.8444 12.66043,-15.84533 1.04839,-11.6181 1.55471,-21.82032 7.28315,-32.20849 1.15466,-2.09391 10.90025,-10.64608 10.52765,-10.88904 -5.37716,-3.50633 -21.2677,12.2834 -22.14439,17.42838 -1.49407,8.76823 -4.89578,16.65166 -7.27812,25.19571 -0.83039,2.97816 -1.13284,6.01916 -4.1843,9.0648 -3.07826,3.0724 -11.34626,2.71567 -13.15506,8.02331 -4.11963,12.08838 9.97583,27.07854 -0.0908,46.04172 -8.57785,16.15875 -35.015575,-12.24479 -39.070327,-21.37863 -15.034757,-33.86766 -5.187337,-20.7082 20.420037,-29.05717 2.30422,-0.75127 28.29462,-16.76952 23.77799,-18.24211 -2.51804,-0.82099 -22.80055,13.43377 -32.39978,13.43377 -4.245046,0 -14.006821,-1.81406 -17.742747,-0.0739 -1.16674,0.54342 -12.673222,12.83742 -13.227645,13.92199 -1.729199,3.38271 2.775572,9.23153 0.04538,11.67317 -9.32209,8.33685 -11.530497,12.31677 -12.841432,23.71448 -0.566267,4.92332 4.729786,16.11645 1.539831,20.18782 -3.757085,4.79521 -7.205638,9.57848 -8.914235,9.81797 z"
         style="fill:#000000;stroke:#000000;stroke-width:1.06666672px;stroke-linecap:butt;stroke-linejoin:miter;stroke-opacity:1" />
      <path
         sodipodi:nodetypes="ccccc"
         inkscape:connector-curvature="0"
         id="path3071"
         d="m 97.674062,550.55298 c -0.92125,-2.95368 -0.360604,-5.9494 -0.763047,-8.53269 4.445475,-2.41776 9.072655,-5.80929 12.678085,-7.33264 0.18871,2.67336 -0.0644,6.15525 -0.0857,8.84172 -2.33636,0.77961 -8.05,5.00328 -12.143536,6.76475"
         style="fill:#000000;stroke:#000000;stroke-width:1.06666672px;stroke-linecap:butt;stroke-linejoin:miter;stroke-opacity:1" />
      <path
         sodipodi:nodetypes="ccccccc"
         inkscape:connector-curvature="0"
         id="path3073"
         d="m 113.19078,533.86112 c -0.0401,0.97789 -0.10708,1.23959 -0.0799,2.43354 0.0676,2.06659 -0.0607,3.93773 -0.006,5.99926 5.16723,0.0881 9.57982,-0.49366 14.34611,-0.0517 -0.0918,-2.05984 -0.0381,-5.7639 0.0949,-7.67613 -2.53609,-1.17148 -9.21258,-0.60224 -11.34865,-0.71259 -0.1102,-0.004 -3.93829,-0.0499 -2.67305,0.1091"
         style="fill:#000000;stroke:#000000;stroke-width:1.06666672px;stroke-linecap:butt;stroke-linejoin:miter;stroke-opacity:1" />
      <path
         sodipodi:nodetypes="ccccccc"
         inkscape:connector-curvature="0"
         id="path3075"
         d="m 102.73847,563.2982 c 2.92316,-0.91725 1.46624,-2.643 7.60451,-3.06224 2.46362,1.71903 6.6384,3.65122 9.32845,2.61529 4.17832,-2.68484 6.13997,-6.20675 11.61849,-7.209 -0.51404,9.37561 -11.19021,12.78374 -20.38238,12.59963 -3.03821,-0.23052 -4.39621,-1.07479 -6.23339,-3.04285 -0.0816,-0.13067 -1.56334,-2.68075 -1.93569,-1.90083"
         style="fill:#000000;stroke:#000000;stroke-width:1.06666672px;stroke-linecap:butt;stroke-linejoin:miter;stroke-opacity:1" />
    </g>
    <text
       xml:space="preserve"
       style="font-style:italic;font-variant:normal;font-weight:normal;font-stretch:normal;font-size:12.80000019px;line-height:0%;font-family:'Lucida Bright';-inkscape-font-specification:'Lucida Bright Italic';letter-spacing:0px;word-spacing:0px;fill:#000000;fill-opacity:1;stroke:none;stroke-width:1.06666672"
       x="303.33939"
       y="171.17793"
       id="text3019"><tspan
         sodipodi:role="line"
         id="tspan3021"
         x="303.33939"
         y="171.17793"
         style="font-style:italic;font-variant:normal;font-weight:normal;font-stretch:normal;font-size:34.13333511px;line-height:1.25;font-family:'Lucida Bright';-inkscape-font-specification:'Lucida Bright Italic';stroke-width:1.06666672">Micro</tspan></text>
    <text
       xml:space="preserve"
       style="font-style:italic;font-variant:normal;font-weight:normal;font-stretch:normal;font-size:12.80000019px;line-height:0%;font-family:'Lucida Bright';-inkscape-font-specification:'Lucida Bright Italic';letter-spacing:0px;word-spacing:0px;fill:#000000;fill-opacity:1;stroke:none;stroke-width:1.06666672"
       x="324.54553"
       y="209.02867"
       id="text3023"><tspan
         sodipodi:role="line"
         id="tspan3025"
         x="324.54553"
         y="209.02867"
         style="font-size:34.13333511px;line-height:1.25;stroke-width:1.06666672">Architecture</tspan></text>
    <text
       xml:space="preserve"
       style="font-style:italic;font-variant:normal;font-weight:normal;font-stretch:normal;font-size:12.80000019px;line-height:0%;font-family:'Lucida Bright';-inkscape-font-specification:'Lucida Bright Italic';letter-spacing:0px;word-spacing:0px;fill:#000000;fill-opacity:1;stroke:none;stroke-width:1.06666672"
       x="343.04999"
       y="245.79192"
       id="text3027"><tspan
         sodipodi:role="line"
         id="tspan3029"
         x="343.04999"
         y="245.79192"
         style="font-size:34.13333511px;line-height:1.25;stroke-width:1.06666672">Santa</tspan></text>
    <text
       xml:space="preserve"
       style="font-style:italic;font-variant:normal;font-weight:normal;font-stretch:normal;font-size:12.80000019px;line-height:0%;font-family:'Lucida Bright';-inkscape-font-specification:'Lucida Bright Italic';letter-spacing:0px;word-spacing:0px;fill:#000000;fill-opacity:1;stroke:none;stroke-width:1.06666672"
       x="361.29617"
       y="283.0239"
       id="text3031"><tspan
         sodipodi:role="line"
         id="tspan3033"
         x="361.29617"
         y="283.0239"
         style="font-size:34.13333511px;line-height:1.25;stroke-width:1.06666672">Cruz</tspan></text>
  </g>
</svg>
