<?xml version="1.0" encoding="UTF-8" standalone="no"?>
<!-- Created with Inkscape (http://www.inkscape.org/) -->

<svg
   xmlns:dc="http://purl.org/dc/elements/1.1/"
   xmlns:cc="http://creativecommons.org/ns#"
   xmlns:rdf="http://www.w3.org/1999/02/22-rdf-syntax-ns#"
   xmlns:svg="http://www.w3.org/2000/svg"
   xmlns="http://www.w3.org/2000/svg"
   xmlns:sodipodi="http://sodipodi.sourceforge.net/DTD/sodipodi-0.dtd"
   xmlns:inkscape="http://www.inkscape.org/namespaces/inkscape"
   width="235.54694"
   height="167.85699"
   id="svg2"
   version="1.1"
   inkscape:version="0.48.4 r9939"
   sodipodi:docname="masckey2.svg"
   inkscape:export-filename="/media/Dropbox/Documents/www/masc/assets/logos/mascESCkey.png"
   inkscape:export-xdpi="300.25558"
   inkscape:export-ydpi="300.25558">
  <defs
     id="defs4" />
  <sodipodi:namedview
     id="base"
     pagecolor="#ffffff"
     bordercolor="#666666"
     borderopacity="1.0"
     inkscape:pageopacity="0.0"
     inkscape:pageshadow="2"
     inkscape:zoom="2.2799865"
     inkscape:cx="159.741"
     inkscape:cy="79.248131"
     inkscape:document-units="px"
     inkscape:current-layer="layer1"
     showgrid="false"
     showguides="true"
     inkscape:guide-bbox="true"
     inkscape:window-width="1362"
     inkscape:window-height="745"
     inkscape:window-x="0"
     inkscape:window-y="19"
     inkscape:window-maximized="1"
     fit-margin-top="0"
     fit-margin-left="0"
     fit-margin-right="0"
     fit-margin-bottom="0" />
  <metadata
     id="metadata7">
    <rdf:RDF>
      <cc:Work
         rdf:about="">
        <dc:format>image/svg+xml</dc:format>
        <dc:type
           rdf:resource="http://purl.org/dc/dcmitype/StillImage" />
        <dc:title></dc:title>
      </cc:Work>
    </rdf:RDF>
  </metadata>
  <g
     inkscape:label="Layer 1"
     inkscape:groupmode="layer"
     id="layer1"
     transform="translate(-61.029359,-117.82551)">
    <path
       style="fill:#000000;stroke:none"
       d="m 95.94038,191.47787 c 1.34763,-18.43137 10.00531,-46.5256 20.65967,-61.00635 8.55946,-11.63349 13.22066,-6.43212 17.45773,3.5143 3.13831,7.36708 2.40905,15.19112 2.44615,15.11854 3.96064,-7.74791 21.11174,-30.27838 31.1831,-31.26347 6.48971,-0.63477 10.66598,18.55858 11.65643,23.52389 6.34505,31.80884 -3.36151,78.47654 10.95451,111.43331 13.7496,31.65282 41.12078,16.28004 66.85434,0.7906 6.68156,-4.02173 13.12514,-9.42719 19.5692,-15.1324 3.67205,-3.25103 7.69754,-5.54449 11.93296,-7.86442 0.6018,-0.32963 2.26809,-1.44607 1.85057,-0.90156 -9.29547,12.1227 -22.9917,21.26462 -34.58173,30.90704 -7.90997,6.58077 -17.40536,11.59314 -25.87009,17.33357 -5.81262,3.94188 -17.12644,7.13008 -24.12116,7.65636 -47.91618,3.60519 -36.31132,-96.19404 -42.35031,-125.38675 -3.12425,-15.10278 -2.66654,-23.19441 -8.1042,-24.96639 -2.62111,-0.85415 -5.88616,12.35095 -7.82768,19.76506 -5.61673,21.4487 -2.37435,32.74306 -20.24987,42.84509 -0.58168,0.32873 -4.84525,2.33373 -5.38153,1.91409 -1.80476,-1.41221 -1.0039,-45.69801 -3.27194,-46.43748 -0.0125,-0.004 -4.20438,17.27583 -4.74718,19.34895 -2.76846,10.57359 -14.65325,14.4581 -18.16768,18.63703"
       id="path3046"
       inkscape:connector-curvature="0"
       sodipodi:nodetypes="csscssssssssssssssscsc" />
    <path
       style="fill:#000000;stroke:none"
       d="M 147.75 47.46875 C 147.38989 47.445263 147.01791 47.487867 146.65625 47.59375 C 131.12035 52.1422 128.67059 82.04812 122.96875 93.09375 L 123.1875 93.21875 C 125.14233 91.26421 131.90101 89.03343 135.59375 85.9375 C 136.94591 84.80388 137.02319 80.81229 137.40625 80.5625 C 149.67163 72.56455 151.55557 96.36652 153.40625 103.34375 C 157.23762 117.7883 162.1875 134.16768 162.1875 149.1875 C 162.1875 150.11911 163.33359 147.71114 164.03125 147.09375 C 168.56234 143.08391 171.58899 138.811 176.90625 135.34375 C 177.81875 134.74873 172.55947 119.77082 172.15625 118.5 C 169.23157 109.28231 158.91333 48.196836 147.75 47.46875 z M 141.875 70.96875 C 144.83672 70.71683 146.49086 77.57867 140.125 76.84375 L 139.75 76.8125 C 139.61219 73.47477 139.68619 71.15493 141.875 70.96875 z "
       transform="translate(61.029359,117.82551)"
       id="path3048" />
    <path
       style="fill:#000000;stroke:none"
       d="m 253.04703,188.70382 c 1.38862,-1.38655 14.81242,-21.0171 11.82661,-22.83037 -2.1599,-1.3117 -14.64323,8.94833 -18.12278,12.30288 -6.83128,6.58588 -10.72383,23.40244 -7.82297,31.98728 2.40683,7.12283 8.2947,12.86967 7.09976,21.44079 -0.45001,3.22781 -4.95,7.46409 -6.46635,10.4304 -0.76704,1.50051 9.98782,-3.98843 11.29484,-4.8407 5.85914,-3.82061 13.16617,-10.34654 12.1882,-18.2116 -1.19843,-9.63814 -12.04307,-24.48726 -9.74158,-30.30805"
       id="path3052"
       inkscape:connector-curvature="0"
       sodipodi:nodetypes="csssssssc" />
    <path
       style="fill:#000000;stroke:none"
       d="m 292.12162,161.19918 c -7.73823,1.19524 -16.2878,8.00188 -20.0797,15.00758 -8.13753,15.03448 -17.1819,38.23448 10.86942,32.13729 2.76459,-0.60091 8.19343,-7.26914 9.99731,-9.14047 0.32399,-0.33611 4.15339,-4.57033 3.61605,-4.74362 -4.8173,-1.55359 -11.67275,3.1132 -16.52559,-1.94987 -7.59554,-7.92459 11.93265,-30.30995 12.58953,-30.58837"
       id="path3056"
       inkscape:connector-curvature="0"
       sodipodi:nodetypes="csssssc" />
    <g
       id="g3077"
       transform="translate(13.472286,-283.91754)">
      <path
         sodipodi:nodetypes="cssssssssssssssssssscsssscc"
         inkscape:connector-curvature="0"
         id="path3065"
         d="m 48.057085,561.83562 c 26.418278,-9.30661 10.431232,-24.62378 16.910342,-43.6357 2.274928,-6.67541 11.787185,11.18551 12.890148,13.34315 4.89122,9.56834 28.028985,25.60182 38.734255,20.84694 13.74139,-6.10341 17.65426,-16.79709 20.97308,-31.51313 1.6299,-7.22719 0.19821,-13.62194 -1.36134,-20.48631 -0.23865,-1.05042 -0.62005,-4.1229 -0.93591,-3.09306 -0.20265,0.66071 1.19991,-1.43641 1.65912,-1.84474 5.61252,-4.99062 11.10769,-6.41663 11.86915,-14.855 0.98287,-10.89197 1.45754,-20.45655 6.82795,-30.19546 1.0825,-1.96304 10.21899,-9.9807 9.86968,-10.20848 -5.04109,-3.28718 -19.93847,11.51569 -20.76037,16.33911 -1.40069,8.22022 -4.58979,15.61093 -6.82324,23.62098 -0.77849,2.79202 -1.06203,5.64296 -3.92278,8.49825 -2.88587,2.88037 -10.63712,2.54594 -12.33287,7.52185 -3.86215,11.33286 9.35234,25.38613 -0.0851,43.16411 -8.04174,15.14883 -32.827105,-11.47949 -36.628435,-20.04246 -14.095084,-31.75093 -4.863128,-19.41394 19.143785,-27.2411 2.16021,-0.70431 26.52621,-15.72142 22.29187,-17.10198 -2.36067,-0.76967 -21.37552,12.59416 -30.374802,12.59416 -3.979727,0 -13.131391,-1.70068 -16.633821,-0.0693 -1.093819,0.50946 -11.881146,12.03508 -12.400918,13.05187 -1.621124,3.17129 2.602099,8.65456 0.04254,10.9436 -8.739459,7.81579 -10.809841,11.54697 -12.038842,22.23232 -0.530875,4.61561 4.434174,15.10917 1.443591,18.92608 -3.522267,4.49551 -6.755285,8.97983 -8.357095,9.20435 z"
         style="fill:#000000;stroke:#000000;stroke-width:1px;stroke-linecap:butt;stroke-linejoin:miter;stroke-opacity:1" />
      <path
         sodipodi:nodetypes="ccccc"
         inkscape:connector-curvature="0"
         id="path3071"
         d="m 91.569433,516.14342 c -0.863672,-2.76908 -0.338066,-5.57756 -0.715356,-7.9994 4.167634,-2.26665 8.505609,-5.44621 11.885703,-6.87435 0.17692,2.50628 -0.0604,5.77055 -0.0803,8.28911 -2.19033,0.73089 -7.546874,4.69058 -11.384561,6.34196"
         style="fill:#000000;stroke:#000000;stroke-width:1px;stroke-linecap:butt;stroke-linejoin:miter;stroke-opacity:1" />
      <path
         sodipodi:nodetypes="ccccccc"
         inkscape:connector-curvature="0"
         id="path3073"
         d="m 106.11636,500.4948 c -0.0376,0.91677 -0.10039,1.16212 -0.0749,2.28144 0.0634,1.93743 -0.0569,3.69163 -0.006,5.62431 4.84428,0.0826 8.98108,-0.46281 13.44948,-0.0485 -0.0861,-1.9311 -0.0357,-5.40365 0.089,-7.19637 -2.37758,-1.09826 -8.63679,-0.5646 -10.63936,-0.66805 -0.10331,-0.004 -3.69214,-0.0468 -2.50598,0.10228"
         style="fill:#000000;stroke:#000000;stroke-width:1px;stroke-linecap:butt;stroke-linejoin:miter;stroke-opacity:1" />
      <path
         sodipodi:nodetypes="ccccccc"
         inkscape:connector-curvature="0"
         id="path3075"
         d="m 96.317317,528.09206 c 2.740457,-0.85992 1.374599,-2.47781 7.129223,-2.87085 2.30965,1.61159 6.2235,3.42302 8.74543,2.45184 3.91717,-2.51704 5.75622,-5.81883 10.89233,-6.75844 -0.48191,8.78963 -10.49082,11.98476 -19.10848,11.81215 -2.84832,-0.21611 -4.121452,-1.00761 -5.843802,-2.85267 -0.07654,-0.1225 -1.46563,-2.5132 -1.814711,-1.78203"
         style="fill:#000000;stroke:#000000;stroke-width:1px;stroke-linecap:butt;stroke-linejoin:miter;stroke-opacity:1" />
    </g>
    <text
       xml:space="preserve"
       style="font-size:18px;font-style:normal;font-variant:normal;font-weight:normal;font-stretch:normal;text-align:center;line-height:125%;letter-spacing:0px;word-spacing:0px;writing-mode:lr-tb;text-anchor:middle;fill:#000000;fill-opacity:1;stroke:none;font-family:DejaVu Sans;-inkscape-font-specification:Sans"
       x="238.22339"
       y="154.54137"
       id="text2991"
       sodipodi:linespacing="125%"><tspan
         sodipodi:role="line"
         id="tspan2993"
         x="238.22339"
         y="154.54137"
         style="font-size:40px;font-style:normal;font-variant:normal;font-weight:bold;font-stretch:normal;font-family:Sans;-inkscape-font-specification:Times Bold">PhD</tspan></text>
  </g>
</svg>
