<?xml version="1.0" encoding="UTF-8" standalone="no"?>
<!-- Created with Inkscape (http://www.inkscape.org/) -->

<svg
   width="45.271088mm"
   height="52.580189mm"
   viewBox="1 1 45.271086 52.580187"
   version="1.1"
   id="svg5"
   xml:space="preserve"
   inkscape:version="1.2.2 (b0a84865, 2022-12-01)"
   sodipodi:docname="phoenix.svg"
   inkscape:export-filename="phoenix.png"
   inkscape:export-xdpi="996.02"
   inkscape:export-ydpi="996.02"
   xmlns:inkscape="http://www.inkscape.org/namespaces/inkscape"
   xmlns:sodipodi="http://sodipodi.sourceforge.net/DTD/sodipodi-0.dtd"
   xmlns="http://www.w3.org/2000/svg"
   xmlns:svg="http://www.w3.org/2000/svg"><sodipodi:namedview
     id="namedview7"
     pagecolor="#ffffff"
     bordercolor="#666666"
     borderopacity="1.0"
     inkscape:showpageshadow="2"
     inkscape:pageopacity="0.0"
     inkscape:pagecheckerboard="0"
     inkscape:deskcolor="#d1d1d1"
     inkscape:document-units="mm"
     showgrid="false"
     inkscape:zoom="3.3638608"
     inkscape:cx="7.2832978"
     inkscape:cy="101.52025"
     inkscape:window-width="1974"
     inkscape:window-height="1461"
     inkscape:window-x="763"
     inkscape:window-y="53"
     inkscape:window-maximized="0"
     inkscape:current-layer="layer1" /><defs
     id="defs2"><inkscape:path-effect
       effect="simplify"
       id="path-effect467"
       is_visible="true"
       lpeversion="1"
       steps="1"
       threshold="0.00961538"
       smooth_angles="360"
       helper_size="0"
       simplify_individual_paths="false"
       simplify_just_coalesce="false" /></defs><g
     inkscape:label="Layer 1"
     inkscape:groupmode="layer"
     id="layer1"
     transform="translate(-64.579684,-170.99693)"><path
       style="opacity:0.01;fill:#f3bb35;stroke-width:0.381"
       id="path696"
       d="m 193.2545,140.79184 c -0.68167,0 -1.36335,0 -2.04502,0 -1.16671,0 -2.33342,0 -3.50013,0 -0.93075,0 -1.86165,0.017 -2.79224,0 -0.50258,-0.009 -1.00504,-0.0365 -1.50595,-0.0784 -0.11176,-0.009 -0.28013,-0.17656 -0.32798,-0.0751 -0.0471,0.0999 0.1865,0.11827 0.27975,0.1774 0.10369,-0.0224 0.27992,0.0343 0.31109,-0.0671 0.15243,-0.49593 -0.6566,-0.31353 -0.7147,-0.31054 -0.33895,0.0174 -0.33809,0.02 -0.59256,0.0502 0,0 0.0373,0.31239 0.0373,0.31239 v 0 c 0.14697,-0.0177 1.02222,-0.0575 1.04499,-0.0687 0.0984,-0.0483 0.23636,-0.21672 0.15487,-0.28998 -0.0961,-0.0864 -0.25143,0.0601 -0.37714,0.0902 -0.0706,0.13779 -0.26157,0.26674 -0.21185,0.41337 0.0416,0.1227 0.25081,0.0712 0.37991,0.0822 0.50629,0.0429 1.01425,0.0696 1.52227,0.0789 2.7782,0.0508 5.5589,-0.0352 8.33739,0 0,0 0,-0.31462 0,-0.31462 z" /><g
       id="g641"
       transform="matrix(0.36902517,0,0,0.36902517,49.178312,138.8194)"><path
         style="fill:none;stroke:#000000;stroke-width:0.264583px;stroke-linecap:round;stroke-linejoin:miter;stroke-opacity:1"
         d="m 128.59295,90.038171 c 12.04221,23.928529 14.6244,47.783599 2.99871,71.034999"
         id="path523"
         sodipodi:nodetypes="cc" /><path
         style="fill:none;stroke:#000000;stroke-width:0.264583px;stroke-linecap:round;stroke-linejoin:miter;stroke-opacity:1"
         d="m 131.59349,161.07316 c 10.1185,-4.92362 15.13541,-14.68091 19.02276,-23.37026"
         id="path690"
         sodipodi:nodetypes="cc" /><path
         style="fill:none;stroke:#000000;stroke-width:0.264583px;stroke-linecap:round;stroke-linejoin:miter;stroke-opacity:1"
         d="m 128.61557,90.059027 c 16.37151,11.929333 26.778,27.325003 25.30417,47.958493"
         id="path692"
         sodipodi:nodetypes="cc" /><path
         style="fill:none;stroke:#000000;stroke-width:0.264583px;stroke-linecap:round;stroke-linejoin:miter;stroke-opacity:1"
         d="m 150.60873,137.7103 3.32025,0.3047"
         id="path708"
         sodipodi:nodetypes="cc" /><path
         style="fill:none;stroke:#000000;stroke-width:0.264583px;stroke-linecap:round;stroke-linejoin:miter;stroke-opacity:1"
         d="m 109.64698,138.042 c 1.47373,7.53247 19.19517,0.31059 19.43149,14.78916 0.13344,8.17505 -7.21659,12.01449 -16.71456,17.38297 -17.781939,10.05079 -33.942926,31.71527 -6.95774,62.02262"
         id="path710"
         sodipodi:nodetypes="cssc" /><path
         style="fill:none;stroke:#000000;stroke-width:0.264583px;stroke-linecap:round;stroke-linejoin:miter;stroke-opacity:1"
         d="m 118.4345,149.38792 c 3.12344,14.09949 -14.00796,10.83548 -25.064741,23.85154 -11.056787,13.01606 -17.373776,39.30885 12.050311,59.01815"
         id="path712"
         sodipodi:nodetypes="csc" /><path
         style="fill:none;stroke:#000000;stroke-width:0.264583px;stroke-linecap:round;stroke-linejoin:miter;stroke-opacity:1"
         d="m 109.63307,138.06286 c -4.08695,9.15208 1.58208,13.4934 8.7996,11.32814"
         id="path714"
         sodipodi:nodetypes="cc" /><path
         style="fill:none;stroke:#000000;stroke-width:0.264583px;stroke-linecap:round;stroke-linejoin:miter;stroke-opacity:1"
         d="m 95.565411,100.59931 c -6.016741,20.51147 -1.475721,40.85175 10.687209,57.39332"
         id="path716"
         sodipodi:nodetypes="cc" /><path
         style="fill:none;stroke:#000000;stroke-width:0.264583px;stroke-linecap:round;stroke-linejoin:miter;stroke-opacity:1"
         d="m 95.486758,100.75662 c -22.832493,9.93132 -10.389385,66.1722 10.775692,57.26059"
         id="path718"
         sodipodi:nodetypes="cc" /><path
         style="fill:none;stroke:#000000;stroke-width:0.264583px;stroke-linecap:butt;stroke-linejoin:miter;stroke-opacity:1"
         d="m 95.486759,100.91393 c -9.481836,12.88487 -12.107696,34.5733 -2.988879,49.08051 -1.021058,0.0723 -2.308572,-0.0682 -3.120968,-0.10597"
         id="path720" /><path
         style="fill:none;stroke:#000000;stroke-width:0.264583px;stroke-linecap:round;stroke-linejoin:miter;stroke-opacity:1"
         d="m 98.492006,223.27761 c -6.573461,-23.34814 2.941504,-40.43718 19.652014,-45.53017 25.17646,-7.67321 35.49877,-16.88342 36.47192,-32.92014"
         id="path722"
         sodipodi:nodetypes="csc" /><path
         style="fill:none;stroke:#000000;stroke-width:0.264583px;stroke-linecap:round;stroke-linejoin:miter;stroke-opacity:1"
         d="m 106.88244,173.76217 c 19.28487,-1.07307 38.41154,-13.69561 47.72903,-28.94242"
         id="path724"
         sodipodi:nodetypes="cc" /><path
         style="fill:none;stroke:#000000;stroke-width:0.264583px;stroke-linecap:round;stroke-linejoin:miter;stroke-opacity:1"
         d="m 140.68271,168.05565 c 16.57064,-2.24985 25.4996,-17.41611 23.61062,-32.90575"
         id="path726"
         sodipodi:nodetypes="cc" /><path
         style="fill:none;stroke:#000000;stroke-width:0.264583px;stroke-linecap:round;stroke-linejoin:miter;stroke-opacity:1"
         d="m 153.97634,149.99971 c 4.55811,-3.84526 8.09599,-10.2844 10.317,-14.84981"
         id="path728"
         sodipodi:nodetypes="cc" /><path
         style="fill:none;stroke:#000000;stroke-width:0.264583px;stroke-linecap:round;stroke-linejoin:miter;stroke-opacity:1"
         d="m 164.1821,164.96075 c -7.7235,7.57956 -19.05355,7.89 -28.85144,10.09452"
         id="path730"
         sodipodi:nodetypes="cc" /><path
         style="fill:none;stroke:#000000;stroke-width:0.264583px;stroke-linecap:round;stroke-linejoin:miter;stroke-opacity:1"
         d="m 118.41248,185.92382 c 16.69118,8.33802 42.56018,-2.16491 45.76962,-20.96307"
         id="path732"
         sodipodi:nodetypes="cc" /><path
         style="fill:none;stroke:#000000;stroke-width:0.264583px;stroke-linecap:round;stroke-linejoin:miter;stroke-opacity:1"
         d="m 150.15265,177.24521 c -8.39761,6.3694 -21.74307,6.96562 -31.74749,8.67369"
         id="path734"
         sodipodi:nodetypes="cc" /><path
         style="fill:none;stroke:#000000;stroke-width:0.264583px;stroke-linecap:round;stroke-linejoin:miter;stroke-opacity:1"
         d="m 150.14188,177.24261 c -4.70434,0.53561 -10.87003,-0.99984 -14.82175,-2.18536"
         id="path736"
         sodipodi:nodetypes="cc" /><path
         style="fill:none;stroke:#000000;stroke-width:0.264583px;stroke-linecap:round;stroke-linejoin:miter;stroke-opacity:1"
         d="m 49.728241,128.29004 c 5.555896,19.44564 31.89496,18.80175 40.489354,36.37368 -25.016414,6.17236 -44.705361,-11.67989 -40.489354,-36.37368 z"
         id="path2788" /><path
         style="fill:none;stroke:#000000;stroke-width:0.264583px;stroke-linecap:round;stroke-linejoin:miter;stroke-opacity:1"
         d="M 90.103854,164.60897 C 75.330566,160.27423 59.938744,150.10095 53.677064,136.10426"
         id="path2790"
         sodipodi:nodetypes="cc" /><path
         style="fill:none;stroke:#000000;stroke-width:0.264583px;stroke-linecap:butt;stroke-linejoin:miter;stroke-opacity:1"
         d="M 90.824565,171.22655 C 75.260946,184.4298 49.547772,182.48393 44.662254,160.77051 56.278178,170.80307 76.5394,171.90681 90.824565,171.22655 Z"
         id="path2792" /><path
         style="fill:none;stroke:#000000;stroke-width:0.264583px;stroke-linecap:butt;stroke-linejoin:miter;stroke-opacity:1"
         d="m 90.602096,171.22655 c -13.878425,5.33943 -30.878782,2.40667 -43.270215,-3.2258"
         id="path2794" /><path
         style="opacity:0.01;fill:#f3bb35;stroke-width:0.160178;stroke-linecap:round"
         d="m 74.263392,154.4222 c -0.117798,-0.0861 -0.189148,-0.18164 -0.158557,-0.21223 0.03059,-0.0306 0.151995,0.0149 0.26979,0.10099 0.117796,0.0861 0.189146,0.18164 0.158557,0.21223 -0.03059,0.0306 -0.151995,-0.0149 -0.26979,-0.10099 z"
         id="path2895" /><path
         style="opacity:0.01;fill:#ff2a2a;stroke-width:0.605396;stroke-linecap:round"
         d="m 386.99092,868.72824 c -20.54234,-15.60099 -36.22469,-32.23543 -47.90483,-50.81316 -3.8087,-6.0579 -9.83835,-18.38191 -12.3415,-25.22483 -10.96539,-29.97634 -10.63211,-61.48967 0.98632,-93.26066 3.84342,-10.50998 11.84209,-25.61026 18.35587,-34.6531 14.95853,-20.76639 30.36119,-32.50794 61.084,-46.56477 18.16474,-8.31104 25.32924,-12.25258 31.23269,-17.18263 8.58493,-7.16939 12.39171,-17.28004 11.05584,-29.36382 -0.27526,-2.48987 -0.69292,-5.25754 -0.92813,-6.15038 -0.38814,-1.47333 -0.53184,-1.60102 -1.55499,-1.38178 -0.62004,0.13285 -2.45164,0.52248 -4.07024,0.86584 -9.40229,1.99455 -17.46443,0.85058 -23.83576,-3.38215 -9.53445,-6.33412 -11.71328,-19.54477 -5.80333,-35.18654 l 0.92581,-2.45032 0.95017,2.02991 c 2.04876,4.37689 7.13991,7.869 14.52008,9.95958 1.96543,0.55674 8.49236,1.90726 14.50428,3.00113 6.01191,1.09388 13.19135,2.63567 15.95429,3.4262 16.92921,4.84375 25.02115,14.1641 26.74363,30.80351 1.43059,13.81958 -2.75306,25.50908 -12.97341,36.24892 -8.16312,8.57805 -17.08406,14.70263 -42.75734,29.35467 -18.16972,10.36967 -26.41016,15.8728 -37.62704,25.12809 -5.76534,4.75712 -16.9599,15.97289 -21.51202,21.55278 -15.25486,18.69909 -24.50133,38.96045 -27.53191,60.32938 -1.15396,8.13671 -1.04687,23.86021 0.21905,32.16165 3.97974,26.09773 15.48304,51.46053 35.91638,79.1895 1.89706,2.57439 5.22568,6.85688 7.39696,9.51664 2.17126,2.65977 4.13359,5.07242 4.36071,5.36146 1.01204,1.28789 -0.68642,0.2385 -5.36558,-3.31512 z"
         id="path2966"
         transform="scale(0.26458333)" /><path
         style="opacity:0.01;fill:#ff2a2a;stroke-width:0.605396;stroke-linecap:round"
         d="m 386.92376,868.67445 c -25.51615,-19.3824 -43.83664,-40.66257 -55.00876,-63.89544 -6.46946,-13.4535 -10.11872,-25.6849 -12.26145,-41.09732 -1.01957,-7.33362 -1.00495,-24.13867 0.0276,-31.74124 2.26077,-16.64562 6.43209,-30.50257 13.66806,-45.40469 11.57363,-23.83535 26.00811,-40.713 45.70621,-53.44244 6.90751,-4.46382 15.9946,-9.24498 29.45083,-15.49553 7.35845,-3.41808 15.78805,-7.54314 18.73244,-9.16682 15.85197,-8.74152 22.25074,-17.79292 22.35562,-31.62322 0.0364,-4.79514 -0.70666,-11.22664 -1.43271,-12.40142 -0.27294,-0.44162 -0.84141,-0.41856 -3.00632,0.12196 -12.03052,3.00369 -22.51977,1.12577 -28.92219,-5.17802 -4.53738,-4.46748 -6.64368,-10.66692 -6.19997,-18.24834 0.25154,-4.29815 1.5608,-10.24412 3.22609,-14.65126 l 0.91817,-2.4299 1.0278,2.06252 c 2.23066,4.47636 6.98331,7.72112 14.45773,9.87069 1.96543,0.56525 8.49236,1.92271 14.50428,3.01658 6.01191,1.09388 13.19135,2.63567 15.95429,3.4262 16.82924,4.81515 24.90007,14.01863 26.72944,30.4806 1.54205,13.87649 -2.76724,26.01362 -13.01498,36.65671 -8.28582,8.60549 -17.05065,14.617 -42.70975,29.29323 -15.6431,8.94739 -20.78289,12.2126 -29.4208,18.69048 -28.25637,21.19047 -47.0249,46.97799 -54.45525,74.82024 -5.68069,21.28612 -4.85624,44.19596 2.4056,66.84697 7.04614,21.97819 19.09438,43.3917 36.90802,65.59718 6.10718,7.61287 6.23809,7.78815 5.81126,7.78111 -0.18653,-0.003 -2.6396,-1.75305 -5.45127,-3.88883 z"
         id="path2968"
         transform="scale(0.26458333)" /><path
         style="opacity:0.88;fill:#ff2a2a;stroke-width:0.605396;stroke-linecap:round"
         d="m 386.99092,868.7247 c -14.66225,-11.14563 -27.01799,-22.93128 -36.7388,-35.04369 -12.00879,-14.96331 -21.44854,-32.68301 -26.2945,-49.35836 -3.71548,-12.78529 -5.0291,-22.32498 -5.01317,-36.40647 0.0159,-14.05368 1.30852,-23.60023 4.99146,-36.8638 7.25793,-26.13835 22.88943,-51.76973 41.13978,-67.45796 11.55555,-9.9333 21.81362,-16.03247 45.04366,-26.78174 16.05399,-7.42867 21.47229,-10.39663 27.09069,-14.83931 8.31808,-6.57741 12.30475,-14.67859 12.38428,-25.16562 0.0364,-4.79514 -0.70666,-11.22664 -1.43271,-12.40142 -0.27265,-0.44117 -0.85216,-0.41509 -3.05129,0.13731 -5.15005,1.29366 -10.36354,1.71247 -14.58228,1.17144 -10.92511,-1.40109 -17.6839,-7.17668 -20.03121,-17.11728 -1.2724,-5.38843 -0.14023,-14.46545 2.76239,-22.14713 l 0.91817,-2.4299 1.0278,2.06252 c 2.25811,4.53143 7.0369,7.76159 14.66794,9.91462 2.08104,0.58715 8.41878,1.91422 14.08386,2.94904 11.9934,2.1908 17.08136,3.42471 21.68708,5.25945 9.44527,3.76262 15.91519,10.00684 18.90602,18.24647 1.84516,5.08337 2.42107,8.87104 2.40636,15.82633 -0.012,5.6608 -0.15885,7.06843 -1.11861,10.72055 -3.35371,12.76171 -12.41032,23.35518 -29.89906,34.97278 -6.18829,4.11082 -10.87789,6.91365 -26.27586,15.70423 -14.13734,8.07089 -19.45207,11.46247 -27.95752,17.84102 -31.72766,23.79371 -51.3053,53.18275 -56.71855,85.14322 -2.40055,14.17319 -1.82824,30.01716 1.64818,45.62815 1.38669,6.22698 5.26339,18.01661 8.22104,25.00138 7.15744,16.90299 18.17496,34.72925 32.3729,52.37912 2.58743,3.2165 4.89253,6.08467 5.12245,6.37371 1.03242,1.29786 -0.69099,0.2309 -5.3605,-3.31866 z"
         id="path2970"
         transform="scale(0.26458333)" /><path
         style="opacity:0.88;fill:#ff2a2a;stroke-width:0.605396;stroke-linecap:round"
         d="m 535.64223,633.60673 c 0.0963,-0.0919 2.25623,-1.72646 4.79973,-3.63234 21.44759,-16.07102 34.27438,-34.16941 40.62952,-57.3276 l 1.33642,-4.86992 5.335,-5.36428 c 2.93425,-2.95036 6.83063,-7.25615 8.65864,-9.56842 6.61934,-8.37295 14.44735,-20.78745 21.00524,-33.31238 2.81679,-5.37978 2.92404,-5.51976 3.22126,-4.20414 0.49307,2.18259 0.4404,18.19066 -0.0757,23.01224 -2.34812,21.93603 -9.67535,41.12208 -21.95618,57.4913 -3.86752,5.15505 -11.5795,13.13599 -16.58116,17.15943 -8.03324,6.4621 -18.54545,12.43125 -28.09238,15.95168 -5.6473,2.08244 -19.19842,5.54015 -18.28037,4.66443 z"
         id="path3179"
         transform="scale(0.26458333)" /><path
         style="opacity:0.88;fill:#ff2a2a;stroke-width:0.605396;stroke-linecap:round"
         d="m 338.43312,565.81731 c -1.34859,-0.36857 -7.73983,-13.80431 -11.49672,-24.16852 -11.04658,-30.47443 -14.36404,-67.68711 -8.65289,-97.06118 5.57181,-28.65743 18.29448,-49.37504 36.79593,-59.91855 1.81664,-1.03525 3.44311,-1.88228 3.61439,-1.88228 0.17127,0 -0.51192,1.18241 -1.51822,2.62758 -3.27638,4.70534 -6.61538,10.48203 -10.14545,17.55228 -9.85977,19.7478 -15.90862,41.01482 -18.53425,65.16414 -0.97595,8.97633 -0.97922,27.68149 -0.006,36.576 2.46504,22.5379 8.45046,41.91477 18.14845,58.75284 l 1.51337,2.62758 -4.54379,-0.0488 c -2.49909,-0.0268 -4.82758,-0.12632 -5.17442,-0.22112 z"
         id="path3181"
         transform="scale(0.26458333)" /><path
         style="opacity:0.88;fill:#ff2a2a;stroke-width:0.160178;stroke-linecap:round"
         d="m 87.821097,163.67407 c -14.19947,-4.75815 -26.252614,-13.87248 -32.296571,-24.42199 -0.434903,-0.75911 -0.790733,-1.4274 -0.790733,-1.4851 0,-0.0577 0.508322,0.383 1.129606,0.97932 3.215529,3.08634 6.240577,5.05644 14.776926,9.62367 5.103022,2.73029 7.423272,4.09169 9.733018,5.71083 3.527182,2.47257 6.268122,5.18974 8.206915,8.13575 0.728623,1.10716 1.242436,2.05846 1.110848,2.0567 -0.04692,-7.9e-4 -0.888421,-0.27026 -1.870009,-0.59918 z"
         id="path3183" /><path
         style="opacity:0.88;fill:#ff2a2a;stroke-width:0.160178;stroke-linecap:round"
         d="m 71.13606,173.7718 c -7.617174,-0.52933 -14.806776,-2.22824 -21.936712,-5.18365 l -1.638872,-0.67932 -0.659606,-1.34447 c -0.362784,-0.73946 -0.79448,-1.71989 -0.959324,-2.17873 -0.373634,-1.04 -0.94829,-2.92648 -0.904727,-2.97004 0.01789,-0.0179 0.328843,0.20017 0.691037,0.48454 1.237739,0.97181 3.513685,2.3959 5.312558,3.32416 6.390396,3.29758 14.476476,5.28181 24.686304,6.05773 2.558897,0.19447 7.992401,0.33315 10.759702,0.27462 l 2.614009,-0.0553 -0.611788,0.23167 c -1.729726,0.655 -5.632598,1.48124 -8.67629,1.83677 -1.432044,0.16728 -7.232645,0.30233 -8.676291,0.20201 z"
         id="path3185" /><path
         style="opacity:0.88;fill:#ffd42a;stroke-width:0.605396;stroke-linecap:round"
         d="m 366.98617,834.01573 c -1.46193,-2.4966 -4.004,-7.18788 -5.64906,-10.42507 -19.81386,-38.99034 -21.70806,-76.07012 -5.61468,-109.90967 9.21864,-19.38404 25.07349,-38.34236 44.39964,-53.09054 l 4.10581,-3.13324 6.09016,-0.52472 c 41.5989,-3.5841 85.65305,-22.00771 122.47986,-51.22156 18.91681,-15.00625 36.00674,-33.33875 48.01365,-51.5046 1.33881,-2.02554 2.47686,-3.63362 2.52901,-3.57352 0.23409,0.26979 -1.07402,9.86349 -1.91094,14.01492 -5.8945,29.23868 -21.67595,51.24883 -50.02656,69.7713 -19.81657,12.94688 -45.88874,24.35679 -80.56394,35.25706 -11.6811,3.67199 -17.46866,5.91465 -24.45282,9.47539 -10.91049,5.5625 -19.40779,11.76085 -28.26434,20.61739 -9.36623,9.36623 -15.51687,17.95712 -21.22726,29.6491 -8.44857,17.29839 -12.54628,34.91519 -13.10378,56.33545 -0.41257,15.85154 1.3287,32.13675 5.14249,48.09528 0.57469,2.40473 0.96972,4.4474 0.87785,4.53927 -0.0919,0.0919 -1.36316,-1.87564 -2.82509,-4.37224 z"
         id="path3256"
         transform="scale(0.26458333)" /><path
         style="opacity:0.88;fill:#ffd42a;stroke-width:0.160178;stroke-linecap:round"
         d="m 132.14933,160.40094 c 0.033,-0.0765 0.39292,-0.86208 0.7998,-1.74579 3.53286,-7.67298 5.58844,-15.75611 6.18048,-24.30333 0.16872,-2.43594 0.072,-8.84691 -0.16879,-11.18663 -0.50011,-4.85959 -1.40554,-9.57679 -2.78625,-14.5161 -1.35807,-4.85828 -4.23859,-12.331659 -6.45103,-16.736881 -0.28402,-0.56552 -0.49927,-1.045348 -0.47833,-1.066284 0.0576,-0.05765 2.18323,1.580123 3.83174,2.952377 12.05538,10.035148 18.87168,21.553478 20.43961,34.539288 0.25752,2.13283 0.40443,5.42891 0.33218,7.45272 -0.035,0.97886 -0.0791,1.83259 -0.0981,1.89718 -0.024,0.0815 -0.52131,0.0723 -1.62386,-0.0298 -0.87414,-0.081 -1.62103,-0.10878 -1.65974,-0.0618 -0.0387,0.047 -0.38729,0.78616 -0.7746,1.64267 -2.3254,5.14233 -4.97471,9.68387 -7.5271,12.9032 -1.25789,1.58657 -4.24167,4.55654 -5.65851,5.63231 -1.16221,0.88244 -2.55734,1.80591 -3.64124,2.41023 -0.70255,0.3917 -0.80528,0.42277 -0.71631,0.21662 z"
         id="path3258" /><path
         style="opacity:0.88;fill:#ffd42a;stroke-width:0.605396;stroke-linecap:round"
         d="m 378.16223,599.52135 c -5.96414,-1.10144 -12.1514,-3.81028 -17.86759,-7.8226 -6.1019,-4.28305 -14.31778,-13.34728 -19.89038,-21.94419 l -1.57427,-2.42864 5.62496,0.28229 c 3.28399,0.16481 5.72388,0.12223 5.86266,-0.10233 0.13074,-0.21154 -1.05911,-2.62683 -2.64411,-5.36731 -8.80712,-15.22758 -14.48148,-32.93767 -17.45839,-54.48889 -0.92814,-6.71919 -1.29335,-27.10303 -0.63021,-35.17374 1.69957,-20.68443 6.09143,-39.24759 13.65425,-57.71278 3.53497,-8.63088 10.39151,-21.63657 14.40899,-27.3314 l 1.05246,-1.49188 -0.29178,1.26124 c -6.3744,27.55371 -8.07527,42.21647 -7.65651,66.00497 0.229,13.00862 0.77634,20.02465 2.41063,30.90042 5.63701,37.5128 20.8668,75.10732 43.52029,107.42927 1.77745,2.53605 3.31254,4.8183 3.41131,5.07165 0.10233,0.26249 -1.11199,0.86827 -2.82297,1.40826 -6.55851,2.0699 -13.21438,2.59433 -19.10934,1.50566 z"
         id="path3260"
         transform="scale(0.26458333)" /><path
         style="opacity:0.88;fill:#ffd42a;stroke-width:0.160178;stroke-linecap:round"
         d="m 77.648098,165.59692 c -6.458926,-0.5119 -12.434832,-2.80775 -17.241345,-6.62386 -1.161656,-0.92229 -3.380134,-3.12684 -4.335989,-4.30877 -1.796121,-2.22094 -3.748048,-5.65857 -4.720233,-8.31303 -0.776131,-2.11915 -1.393793,-4.63917 -1.754989,-7.16024 -0.199001,-1.38898 -0.192257,-6.93128 0.01058,-8.70662 l 0.155983,-1.36515 0.412932,1.09435 c 0.557792,1.47825 1.506331,3.30425 2.381041,4.58365 0.397357,0.5812 1.149747,1.88265 1.671976,2.8921 2.886404,5.57931 6.684159,10.18027 12.141026,14.7088 5.773028,4.79089 13.714486,9.13891 21.178874,11.59562 0.887095,0.29196 1.654297,0.5685 1.704893,0.61452 0.0506,0.046 -0.474985,0.19014 -1.167961,0.32025 -3.827155,0.71856 -7.132693,0.93025 -10.436802,0.66838 z"
         id="path3262" /><path
         style="opacity:0.88;fill:#ffd42a;stroke-width:0.160178;stroke-linecap:round"
         d="m 65.323881,179.12217 c -7.109515,-0.86049 -12.728104,-4.06739 -16.627139,-9.49022 -0.381137,-0.53009 -0.693983,-0.99824 -0.695216,-1.04034 -0.0013,-0.0421 0.535858,0.1491 1.193533,0.42488 6.342774,2.65969 13.443241,4.39688 20.439337,5.00064 2.616179,0.22578 8.426387,0.16353 10.622894,-0.11382 3.451669,-0.43582 6.920489,-1.21842 9.399312,-2.12057 0.6442,-0.23446 -2.589387,2.03681 -4.226909,2.96897 -4.274323,2.43315 -8.997527,3.94401 -13.832671,4.42479 -1.538763,0.15301 -4.792927,0.12483 -6.273141,-0.0543 z"
         id="path3264" /><path
         style="opacity:0.88;fill:#ffd42a;stroke-width:0.605396;stroke-linecap:round"
         d="m 484.31671,712.33635 c -5.82969,-0.59309 -14.67325,-2.34265 -20.01729,-3.96012 -6.18702,-1.8726 -13.61581,-4.74574 -13.61581,-5.266 0,-0.2137 0.19279,-0.38854 0.42842,-0.38854 1.2047,0 39.63866,-5.68532 47.07834,-6.96403 24.67202,-4.24057 42.98939,-9.74477 56.75006,-17.05285 5.11975,-2.71903 13.54807,-8.29811 13.36512,-8.84697 -0.0867,-0.26012 -3.75514,-0.46602 -9.58767,-0.53813 -12.56605,-0.15536 -22.20191,-1.67089 -39.07993,-6.14647 -4.55889,-1.20889 -5.08378,-1.43428 -3.99393,-1.71502 0.69012,-0.17777 9.10599,-1.76055 18.70194,-3.5173 20.59648,-3.77064 25.29739,-4.73167 34.26372,-7.00471 20.11658,-5.09972 35.90361,-12.55627 47.40166,-22.38884 1.79202,-1.53244 3.25821,-2.61219 3.25821,-2.39944 0,0.21274 -0.47797,2.22641 -1.06215,4.4748 -5.92667,22.81052 -21.93816,43.83331 -45.0802,59.18947 -18.07923,11.99669 -40.65079,20.01948 -62.89561,22.35552 -6.59192,0.69226 -19.91573,0.77895 -25.91488,0.16863 z"
         id="path3266"
         transform="scale(0.26458333)" /></g><path
       d="M 110.85077,219.02018 H 87.965465 v -5.29883 h 22.885305"
       style="fill:#ffeeaa;fill-opacity:1;fill-rule:nonzero;stroke:#ff0000;stroke-width:0.211667;stroke-linejoin:round;stroke-miterlimit:3.5;stroke-dasharray:0, 2.32833;stroke-dashoffset:0"
       id="path170"
       inkscape:connector-curvature="0" /><path
       d="M 87.965465,219.02018 H 110.85077"
       style="fill:#ffeeaa;fill-opacity:1;stroke:#ff0000;stroke-width:0.211667;stroke-linecap:butt;stroke-linejoin:round;stroke-miterlimit:3.5;stroke-dasharray:none;stroke-dashoffset:0;stroke-opacity:1"
       id="path172"
       inkscape:connector-curvature="0" /><path
       d="M 87.965465,213.72135 H 110.85077"
       style="fill:#ffeeaa;fill-opacity:1;stroke:#ff0000;stroke-width:0.211667;stroke-linecap:butt;stroke-linejoin:round;stroke-miterlimit:3.5;stroke-dasharray:none;stroke-dashoffset:0;stroke-opacity:1"
       id="path174"
       inkscape:connector-curvature="0" /><path
       sodipodi:nodetypes="ccccc"
       d="m 88.087977,219.02018 v 0 l -0.794824,-2.64941 0.794824,-2.64941 v 0"
       style="fill:none;fill-opacity:1;fill-rule:nonzero;stroke:#ff0000;stroke-width:0.264941"
       id="path154"
       inkscape:connector-curvature="0" /><path
       sodipodi:nodetypes="cccc"
       d="m 85.703505,219.02018 h 0.794824 l 1.589648,-5.29882 v 0"
       style="fill:none;fill-opacity:1;stroke:#ff0000;stroke-width:0.264941;stroke-linecap:butt;stroke-linejoin:miter;stroke-miterlimit:10;stroke-dasharray:none;stroke-opacity:1"
       id="path156"
       inkscape:connector-curvature="0" /><path
       sodipodi:nodetypes="cccc"
       d="m 85.703505,213.72136 h 0.794824 l 1.589648,5.29882 v 0"
       style="fill:none;fill-opacity:1;stroke:#ff0000;stroke-width:0.264941;stroke-linecap:butt;stroke-linejoin:miter;stroke-miterlimit:10;stroke-dasharray:none;stroke-opacity:1"
       id="path158"
       inkscape:connector-curvature="0" /><path
       style="fill:#ffeeaa;fill-opacity:1;fill-rule:evenodd;stroke:none;stroke-width:0.264583px;stroke-linecap:butt;stroke-linejoin:miter;stroke-opacity:1"
       d="m 88.225104,219.00793 -0.794824,-2.64941 0.794824,-2.64942 z"
       id="path5421"
       inkscape:connector-curvature="0" /><text
       xml:space="preserve"
       style="font-style:italic;font-variant:normal;font-weight:normal;font-stretch:normal;font-size:3.01689px;line-height:0%;font-family:'Lucida Bright';-inkscape-font-specification:'Lucida Bright Italic';letter-spacing:0px;word-spacing:0px;fill:#ff0000;fill-opacity:1;stroke:none;stroke-width:0.251407"
       x="93.038132"
       y="217.785"
       id="text3019"><tspan
         sodipodi:role="line"
         id="tspan3021"
         x="93.038132"
         y="217.785"
         style="font-style:italic;font-variant:normal;font-weight:bold;font-stretch:normal;font-size:4.39963px;line-height:1.25;font-family:'Ubuntu Mono';-inkscape-font-specification:'Ubuntu Mono Italic';fill:#ff0000;fill-opacity:1;stroke-width:0.251407">Pyrope</tspan></text><g
       id="g5188"
       transform="matrix(0.40892299,0,0,0.40892299,66.242679,12.033678)"
       style="stroke-width:0.8627"><path
         sodipodi:nodetypes="cssssssssssssssssssscsssscc"
         inkscape:connector-curvature="0"
         id="path3065"
         d="m 54.954803,504.42082 c 2.089726,-0.73804 0.825126,-1.95273 1.337634,-3.46043 0.17995,-0.52938 0.932384,0.88704 1.01963,1.05815 0.386903,0.75879 2.217135,2.03029 3.063939,1.65322 1.086964,-0.48402 1.396479,-1.33206 1.659002,-2.49908 0.128927,-0.57314 0.01568,-1.08026 -0.107684,-1.62462 -0.01888,-0.0833 -0.04905,-0.32696 -0.07403,-0.24529 -0.01603,0.0524 0.09491,-0.11391 0.131239,-0.14629 0.443959,-0.39577 0.878635,-0.50886 0.938868,-1.17804 0.07775,-0.86377 0.115294,-1.62227 0.540102,-2.39459 0.08563,-0.15567 0.808337,-0.79149 0.780706,-0.80956 -0.398758,-0.26068 -1.577164,0.91323 -1.642177,1.29574 -0.110797,0.65188 -0.36306,1.23799 -0.539728,1.87321 -0.06158,0.22141 -0.08401,0.4475 -0.310298,0.67393 -0.228277,0.22842 -0.841413,0.2019 -0.975549,0.59651 -0.305502,0.89872 0.739784,2.01319 -0.0067,3.42303 -0.636113,1.20134 -2.596673,-0.91036 -2.897364,-1.58942 -1.114943,-2.51794 -0.384681,-1.53958 1.514302,-2.1603 0.170876,-0.0559 2.098264,-1.24675 1.763321,-1.35623 -0.186732,-0.061 -1.690836,0.99875 -2.402693,0.99875 -0.314803,0 -1.038713,-0.13487 -1.315761,-0.005 -0.08652,0.0404 -0.939816,0.95441 -0.980931,1.03504 -0.128234,0.2515 0.20583,0.68633 0.0034,0.86786 -0.691304,0.61982 -0.855075,0.91571 -0.952291,1.76309 -0.04199,0.36603 0.35075,1.19819 0.114191,1.50089 -0.278617,0.3565 -0.534354,0.71212 -0.661059,0.72993 z"
         style="fill:#000000;stroke:#000000;stroke-width:0;stroke-linecap:butt;stroke-linejoin:miter;stroke-miterlimit:4;stroke-dasharray:none;stroke-opacity:1" /><path
         sodipodi:nodetypes="ccccc"
         inkscape:connector-curvature="0"
         id="path3071"
         d="m 58.396696,500.7973 c -0.06832,-0.21959 -0.02674,-0.44231 -0.05659,-0.63437 0.329666,-0.17975 0.672807,-0.4319 0.940177,-0.54516 0.014,0.19876 -0.0048,0.45762 -0.0064,0.65735 -0.173259,0.058 -0.596969,0.37198 -0.900536,0.50294"
         style="fill:#000000;stroke:#000000;stroke-width:0;stroke-linecap:butt;stroke-linejoin:miter;stroke-miterlimit:4;stroke-dasharray:none;stroke-opacity:1" /><path
         sodipodi:nodetypes="ccccccc"
         inkscape:connector-curvature="0"
         id="path3073"
         d="m 59.54738,499.55633 c -0.003,0.0727 -0.0079,0.0922 -0.0059,0.18092 0.005,0.15364 -0.0045,0.29276 -4.45e-4,0.44602 0.38319,0.007 0.710418,-0.0367 1.063875,-0.004 -0.0068,-0.15314 -0.0028,-0.42853 0.007,-0.57069 -0.18807,-0.0871 -0.683183,-0.0448 -0.841589,-0.053 -0.0082,-3e-4 -0.292055,-0.004 -0.198227,0.008"
         style="fill:#000000;stroke:#000000;stroke-width:0;stroke-linecap:butt;stroke-linejoin:miter;stroke-miterlimit:4;stroke-dasharray:none;stroke-opacity:1" /><path
         sodipodi:nodetypes="ccccccc"
         inkscape:connector-curvature="0"
         id="path3075"
         d="m 58.772261,501.74486 c 0.216774,-0.0682 0.108733,-0.19649 0.563932,-0.22766 0.182697,0.1278 0.492289,0.27145 0.691777,0.19443 0.309854,-0.1996 0.455326,-0.46144 0.8616,-0.53596 -0.03812,0.69704 -0.82984,0.95043 -1.51151,0.93674 -0.225307,-0.0171 -0.326013,-0.0799 -0.462254,-0.22623 -0.0061,-0.01 -0.115934,-0.1993 -0.143546,-0.14132"
         style="fill:#000000;stroke:#000000;stroke-width:0;stroke-linecap:butt;stroke-linejoin:miter;stroke-miterlimit:4;stroke-dasharray:none;stroke-opacity:1" /></g><g
       id="g5279"
       transform="matrix(0.33450734,0,0,0.30188731,60.859444,86.851414)"
       style="stroke:#ff0000;stroke-width:1.11014"><path
         inkscape:connector-curvature="0"
         id="path90"
         style="fill:none;stroke:#ff0000;stroke-width:0.832602;stroke-linecap:butt;stroke-linejoin:miter;stroke-miterlimit:10;stroke-dasharray:none;stroke-opacity:1"
         d="m 74.248653,418.40123 h 2.253045 l 4.506089,-6.95257 h 8.261164" /><path
         inkscape:connector-curvature="0"
         id="path94"
         style="fill:none;stroke:#ff0000;stroke-width:0.832602;stroke-linecap:butt;stroke-linejoin:miter;stroke-miterlimit:10;stroke-dasharray:none;stroke-opacity:1"
         d="M 89.268948,411.44866 H 104.28925" /><path
         inkscape:connector-curvature="0"
         id="path98"
         style="fill:none;stroke:#ff0000;stroke-width:0.833728;stroke-linecap:butt;stroke-linejoin:miter;stroke-miterlimit:10;stroke-dasharray:none;stroke-opacity:1"
         d="m 104.28925,411.44866 h 2.25304 l 4.50609,6.95257 h 8.26117" /><path
         inkscape:connector-curvature="0"
         id="path102"
         style="fill:none;stroke:#ff0000;stroke-width:0.833728;stroke-linecap:butt;stroke-linejoin:miter;stroke-miterlimit:10;stroke-dasharray:none;stroke-opacity:1"
         d="m 119.30954,418.40123 h 15.0203" /><path
         inkscape:connector-curvature="0"
         id="path106"
         style="fill:none;stroke:#ff0000;stroke-width:0.833728;stroke-linecap:butt;stroke-linejoin:miter;stroke-miterlimit:10;stroke-dasharray:none;stroke-opacity:1"
         d="m 134.32984,418.40123 h 2.25304 l 4.50609,-6.95257 h 8.26117" /></g><path
       style="opacity:0.88;fill:#ffd42a;fill-opacity:0.882353;stroke-width:0.21404;stroke-linecap:round"
       d="m 84.084942,172.45585 -1.43317,-4.79585 1.114751,-3.71372 c 0.613112,-2.04255 1.249432,-4.16522 1.414043,-4.71704 l 0.299292,-1.00331 h 42.801662 42.80166 v 9.51288 9.51288 H 128.30065 85.518112 Z m 39.285208,-1.68907 c 2.0029,-3.15037 3.79893,-5.98998 3.99117,-6.31026 l 0.34953,-0.58232 h -1.62989 -1.62989 l -1.59522,2.74988 c -0.87738,1.51243 -1.64259,2.77915 -1.70049,2.81493 -0.0579,0.0358 -0.26574,-1.20167 -0.46188,-2.74988 l -0.35662,-2.81493 h -1.53045 c -1.48835,0 -1.53042,0.009 -1.52942,0.33444 6e-4,0.18394 0.30156,2.10508 0.66888,4.26919 0.36731,2.16412 0.66784,4.05088 0.66784,4.19279 0,0.14191 -0.50166,1.03069 -1.11479,1.97505 -0.61314,0.94436 -1.11479,1.74983 -1.11479,1.78992 0,0.0401 0.75248,0.0698 1.67218,0.066 l 1.67219,-0.007 3.64165,-5.72793 z m 26.0494,3.93278 c 0.22507,-0.99488 0.43111,-1.83077 0.45787,-1.85752 0.0267,-0.0268 0.36632,0.0596 0.7546,0.19189 1.0759,0.3666 2.95844,0.231 3.82242,-0.27533 0.80148,-0.4697 1.92828,-1.6475 2.32923,-2.43466 0.84368,-1.65632 1.04459,-4.06624 0.43895,-5.2651 -0.76524,-1.51477 -2.61396,-1.88692 -4.49633,-0.90511 -0.40875,0.2132 -0.80279,0.41347 -0.87565,0.44503 -0.0728,0.0316 -0.0883,-0.11855 -0.0343,-0.33358 l 0.0981,-0.39098 h -1.56354 c -0.85995,0 -1.56354,0.0283 -1.56354,0.0629 0,0.0346 -0.63543,2.81556 -1.41207,6.17995 -0.77664,3.36438 -1.41207,6.1788 -1.41207,6.25426 0,0.0755 0.6856,0.13719 1.52355,0.13718 l 1.52355,-3e-5 z m -61.049066,-0.044 c 0.931984,-0.54618 1.171482,-1.16364 1.046901,-2.69903 -0.06201,-0.76422 -0.03712,-1.46724 0.06544,-1.8481 0.163283,-0.60639 0.169601,-0.61099 0.467832,-0.3411 0.166273,0.15048 0.568795,0.72987 0.894494,1.28755 0.936171,1.60294 2.945309,2.92673 4.441955,2.92673 0.908913,0 1.898383,-0.77264 2.474577,-1.9323 0.693682,-1.39613 0.891581,-2.56011 0.662447,-3.89631 l -0.183389,-1.06945 0.662863,-0.5666 c 0.738759,-0.63147 0.912092,-1.05128 1.060191,-2.56778 0.138315,-1.41625 0.544745,-2.42446 1.258225,-3.12115 0.67375,-0.65791 0.72973,-0.81845 0.28537,-0.81845 -0.38779,0 -1.47717,0.77133 -1.903178,1.34754 -0.176424,0.23863 -0.558066,1.25042 -0.848094,2.24843 -0.648137,2.2303 -0.695768,2.32052 -1.372554,2.59993 -0.698397,0.28832 -1.065667,0.61735 -1.065667,0.95471 0,0.22388 -0.150432,0.27431 -0.928992,0.3114 -0.928947,0.0443 -0.928994,0.0443 -0.975569,0.52732 l -0.04658,0.48308 h 1.029369 1.029369 l 0.169159,0.8423 c 0.313327,1.56018 0.102487,2.68825 -0.600544,3.21313 -0.371835,0.27762 -0.387774,0.27697 -1.14021,-0.0467 -1.139405,-0.49016 -2.524839,-2.02464 -3.121054,-3.45681 -0.53304,-1.28042 -0.592537,-1.83471 -0.208549,-1.94291 0.143065,-0.0403 0.761773,-0.15325 1.374908,-0.25098 1.253128,-0.19974 1.895344,-0.48298 3.214962,-1.41792 0.927217,-0.65693 1.276205,-1.10197 0.864133,-1.10197 -0.122154,0 -0.839095,0.31751 -1.593201,0.70559 -1.317062,0.67778 -1.428135,0.70762 -2.818082,0.75705 l -1.446978,0.0515 -0.758398,0.82981 c -0.717043,0.78456 -0.753414,0.86304 -0.666989,1.43936 0.08346,0.55658 0.04599,0.65358 -0.431123,1.11601 -0.517642,0.50172 -0.93372,1.36986 -1.000119,2.08674 -0.01893,0.20437 0.02126,0.82682 0.08931,1.38321 0.121242,0.99127 0.114396,1.02322 -0.340391,1.58915 -0.69906,0.86988 -0.621715,0.95132 0.358151,0.37708 z M 141.81153,173.151 c 1.70385,-0.49823 3.05993,-1.75252 3.72177,-3.44242 0.26035,-0.66476 0.33716,-1.17166 0.34523,-2.27834 0.01,-1.33446 -0.0178,-1.46893 -0.44048,-2.15299 -0.34534,-0.55884 -0.65606,-0.83453 -1.3275,-1.17782 -0.81826,-0.41834 -0.98125,-0.44739 -2.44759,-0.43626 -1.99927,0.0152 -2.92647,0.34504 -4.1475,1.4755 -1.04373,0.96631 -1.60014,2.04323 -1.83448,3.55059 -0.34524,2.22065 0.45636,3.78483 2.25838,4.40683 1.01938,0.35186 2.77168,0.37671 3.87217,0.0549 z m 23.68792,0.0196 c 1.63422,-0.31268 1.89141,-0.47074 2.09937,-1.29021 0.38392,-1.51289 0.39891,-1.76341 0.10548,-1.76341 -0.14902,0 -0.40721,0.0954 -0.57377,0.2121 -0.52683,0.36901 -2.105,0.8284 -2.84288,0.82754 -1.49331,-0.002 -2.33113,-0.50647 -2.56547,-1.54551 l -0.12057,-0.5346 h 3.39151 3.39151 l 0.18881,-0.5574 c 0.10385,-0.30657 0.19079,-1.02781 0.1932,-1.60276 0.004,-0.8743 -0.0618,-1.15831 -0.40005,-1.73548 -1.25956,-2.14927 -5.69739,-2.13062 -8.04553,0.0338 -1.70465,1.57129 -2.21657,4.7107 -1.04845,6.42974 0.98379,1.44779 3.46197,2.05518 6.22684,1.52617 z m -57.98099,-0.34097 c 0.04,-0.14306 0.21511,-0.89555 0.38918,-1.67218 0.17408,-0.77664 0.34782,-1.51898 0.38611,-1.64964 0.0559,-0.1907 0.38431,-0.25582 1.66461,-0.33007 2.53785,-0.14718 4.0773,-0.73002 5.2557,-1.98982 0.83491,-0.89259 1.09078,-1.58776 1.08294,-2.94217 -0.009,-1.54685 -0.4813,-2.26631 -1.92135,-2.92656 -0.70166,-0.32171 -0.91947,-0.34 -4.06944,-0.3417 l -3.3281,-0.002 -1.38571,5.94555 c -0.76214,3.27006 -1.38817,5.99572 -1.39118,6.05703 -0.003,0.0613 0.72578,0.11148 1.61954,0.11148 1.42084,0 1.63414,-0.0327 1.6977,-0.26012 z m 23.28442,-2.6643 c 0.36744,-1.60843 0.75165,-3.00824 0.85379,-3.1107 0.25001,-0.2508 1.65325,-0.41284 2.72975,-0.31522 0.85323,0.0774 0.87854,0.0691 0.96535,-0.31527 0.049,-0.2171 0.1825,-0.77226 0.29659,-1.2337 0.32098,-1.29819 0.31387,-1.31629 -0.51707,-1.31629 -0.84351,0 -1.66776,0.26339 -2.53248,0.80927 l -0.61546,0.38852 0.0907,-0.4131 c 0.0499,-0.2272 0.11642,-0.4967 0.1479,-0.59889 0.0433,-0.1404 -0.32053,-0.1858 -1.48879,-0.1858 -1.34393,0 -1.5561,0.034 -1.62314,0.26012 -0.12928,0.43599 -2.02386,8.7072 -2.02386,8.83556 0,0.066 0.68596,0.11992 1.52435,0.11992 h 1.52435 z m -35.169469,1.14669 c 0.518822,-0.19725 0.981763,-0.69068 0.981763,-1.0464 0,-0.39637 -0.242006,-0.37472 -0.830725,0.0743 -0.505902,0.38587 -1.159853,0.48943 -1.33198,0.21092 -0.106359,-0.1721 -0.789092,-0.0601 -1.022083,0.16769 -0.08397,0.0821 -0.03149,0.25196 0.134516,0.4354 0.301701,0.33337 1.388916,0.41646 2.068509,0.15808 z m -1.424643,-3.18119 c 0.05548,-0.65029 -0.06884,-0.6706 -0.948657,-0.15499 -0.604565,0.3543 -0.658182,0.43417 -0.658182,0.9805 v 0.59478 l 0.780353,-0.43979 c 0.692594,-0.39032 0.785541,-0.50059 0.826486,-0.9805 z"
       id="path844"
       transform="matrix(0.26458333,0,0,0.26458333,65.579684,171.99693)" /><path
       style="opacity:0.88;fill:#ffd42a;fill-opacity:0.882353;stroke-width:0.21404;stroke-linecap:round"
       d="m 108.99317,166.52967 c 0.045,-0.19336 0.23123,-1.01054 0.41384,-1.81594 l 0.33202,-1.46437 1.08542,0.0548 c 1.39786,0.0706 1.89739,0.39692 1.96332,1.28257 0.0969,1.30132 -0.7926,2.00262 -2.77836,2.19057 l -1.09805,0.10394 z"
       id="path846"
       transform="matrix(0.26458333,0,0,0.26458333,65.579684,171.99693)" /><path
       style="opacity:0.88;fill:#ffd42a;fill-opacity:0.882353;stroke-width:0.21404;stroke-linecap:round"
       d="m 139.61759,171.15607 c -0.6353,-0.2559 -0.83325,-0.79 -0.75797,-2.04516 0.122,-2.03425 1.08215,-3.35395 2.44015,-3.35395 1.1839,0 1.65609,0.87388 1.38425,2.56185 -0.34578,2.14707 -1.69064,3.39143 -3.06643,2.83726 z"
       id="path848"
       transform="matrix(0.26458333,0,0,0.26458333,65.579684,171.99693)" /><path
       style="opacity:0.88;fill:#ffd42a;fill-opacity:0.882353;stroke-width:0.21404;stroke-linecap:round"
       d="m 150.60173,171.05175 c -0.23295,-0.0446 -0.31908,-0.14409 -0.27198,-0.31419 0.0379,-0.13692 0.2794,-1.16316 0.53663,-2.28055 l 0.46771,-2.03162 0.58763,-0.23513 c 0.66733,-0.26701 1.51008,-0.30552 1.91723,-0.0876 0.85702,0.45866 0.6012,3.07438 -0.4123,4.21575 -0.57129,0.64336 -1.72736,0.94348 -2.82492,0.73336 z"
       id="path850"
       transform="matrix(0.26458333,0,0,0.26458333,65.579684,171.99693)" /><path
       style="opacity:0.88;fill:#ffd42a;fill-opacity:0.882353;stroke-width:0.21404;stroke-linecap:round"
       d="m 162.01622,167.20435 c 0,-0.0487 0.11705,-0.28743 0.26011,-0.53051 0.50051,-0.85039 1.71897,-1.31939 2.63897,-1.01577 0.5921,0.19541 0.81688,0.51988 0.81688,1.17913 v 0.45569 h -1.85798 c -1.02189,0 -1.85798,-0.0398 -1.85798,-0.0885 z"
       id="path852"
       transform="matrix(0.26458333,0,0,0.26458333,65.579684,171.99693)" /></g></svg>
